<svg width="21" height="20" viewBox="0 0 21 20" fill="#333" xmlns="http://www.w3.org/2000/svg">
<path d="M19.4712 0.794851C20.3019 1.63188 20.3019 2.97114 19.4712 3.80817L13.4905 9.83481L19.139 15.5266C19.9696 16.3637 19.9696 17.7029 19.139 18.54C18.3083 19.377 16.9792 19.377 16.1486 18.54L10.5001 12.8481L4.85162 18.54C4.02096 19.377 2.69191 19.377 1.86125 18.54C1.03059 17.7029 1.03059 16.3637 1.86125 15.5266L7.50973 9.83481L1.52899 3.80817C0.69833 2.97114 0.69833 1.63188 1.52899 0.794851C2.35965 -0.0421832 3.6887 -0.0421828 4.51936 0.794851L10.5001 6.82149L16.4808 0.79485C17.3115 -0.0421832 18.6406 -0.0421832 19.4712 0.794851Z" fill="#120E1E"/>
</svg>
