<svg width="71" height="48" viewBox="0 0 71 48" fill="none" xmlns="http://www.w3.org/2000/svg">
<path fill-rule="evenodd" clip-rule="evenodd" d="M0.303605 27.8725C1.67879 32.5632 5.02739 36.9451 9.73358 40.2121C15.8811 44.4798 24.9777 47.2219 33.8308 47.476C42.2877 47.7188 50.0092 46.1158 56.8685 42.6933C64.1263 39.0722 69.0137 33.7259 70.4177 27.8725C71.1947 24.6327 71.1943 23.4772 70.4151 20.0274C69.5163 16.0479 66.4522 11.7281 62.2687 8.54241C57.0744 4.5869 50.37 1.97892 42.5228 0.861322C39.7602 0.468001 33.5922 0.376994 30.3425 0.681712C24.4022 1.2388 18.3611 2.93465 13.6869 5.35744C11.7479 6.36236 8.37923 8.66423 6.86256 10.0205C3.53194 12.9987 1.13946 16.7592 0.293664 20.3457C-0.10247 22.0258 -0.0965432 26.5074 0.303605 27.8725ZM33.2573 22.8023C41.8797 22.8023 48.9344 22.7695 48.9344 22.7293C48.9344 22.6611 47.2627 21.1672 47.0304 21.0278C46.9723 20.9929 46.6899 20.7554 46.4029 20.5001C46.1159 20.2447 45.7724 19.9592 45.6393 19.8658C45.5063 19.7724 44.8817 19.2399 44.2513 18.6824C43.621 18.1248 42.996 17.5926 42.8624 17.4993C42.7287 17.4061 42.3848 17.1209 42.0978 16.8655C41.8108 16.6102 41.5319 16.3727 41.4782 16.3378C41.4245 16.303 41.14 16.0605 40.8459 15.7991L40.3116 15.3238L41.8646 15.3238C42.9874 15.3238 43.4965 15.3763 43.7032 15.5133C43.8603 15.6175 44.895 16.5158 46.0028 17.5097C47.1103 18.5034 48.0939 19.3356 48.1888 19.3588C48.2834 19.3821 48.3608 19.4819 48.3608 19.5806C48.3608 19.6795 48.4283 19.7602 48.5107 19.7602C48.5933 19.7602 48.8114 19.9293 48.9954 20.1359C49.1795 20.3425 49.438 20.5849 49.5699 20.6746C49.7018 20.7642 50.4474 21.4224 51.2269 22.1369C52.0063 22.8514 52.7128 23.4361 52.7967 23.4361C52.8806 23.4361 52.9492 23.5168 52.9492 23.6157C52.9492 23.7145 53.0569 23.8285 53.1882 23.8692C53.3794 23.9283 53.3794 23.958 53.1882 24.017C53.0569 24.0577 52.9492 24.1718 52.9492 24.2705C52.9492 24.3694 52.8806 24.4501 52.7967 24.4501C52.7128 24.4501 52.0079 25.0349 51.2301 25.7494C50.4524 26.4639 49.7626 27.0771 49.6972 27.112C49.6318 27.1469 49.2884 27.4606 48.9344 27.8091C48.5803 28.1577 48.2297 28.4714 48.1553 28.5063C48.0809 28.5412 47.1132 29.3828 46.0045 30.3766C44.896 31.3705 43.8603 32.2688 43.7032 32.373C43.4965 32.51 42.9874 32.5625 41.8646 32.5625L40.3116 32.5625L40.8471 32.0897C41.3952 31.6056 41.7376 31.319 42.2429 30.9209C42.4007 30.7966 42.7448 30.5072 43.0077 30.278C43.587 29.7726 46.5578 27.2512 46.8872 26.9852C47.6152 26.3975 48.9344 25.2194 48.9344 25.1569C48.9344 25.1167 41.8797 25.0839 33.2573 25.0839L17.5802 25.0839L17.5802 23.9431L17.5802 22.8023L33.2573 22.8023Z" fill="#120E1E"/>
</svg>
