<svg width="37" height="27" viewBox="0 0 37 27" fill="none" xmlns="http://www.w3.org/2000/svg">
<path d="M0.19351 8.53834C0.667643 3.48877 1.8629 1.58534 5.05464 0.799935C6.14259 0.531902 12.7941 0.36077 19.8357 0.419137C34.5225 0.541537 35.1664 0.716636 36.3333 4.91564C37.3275 8.49187 37.1759 20.4525 36.1039 23.0121C34.648 26.4892 34.146 26.5923 18.6489 26.5923C6.3328 26.5923 4.53622 26.4773 3.19559 25.6007C2.36146 25.0555 1.40127 24.0916 1.06171 23.4592C0.182716 21.8199 -0.290277 13.6905 0.19351 8.53834Z" fill="#120E1E"/>
<path d="M13.6636 13.6813C13.6636 10.5191 13.8314 7.76577 14.0368 7.56276C14.7284 6.87663 15.6259 7.18448 19.5479 9.45418C24.6444 12.4033 25.5872 13.2514 24.8055 14.1855C23.645 15.5711 15.3221 20.0611 14.4962 19.7472C13.8331 19.4948 13.6636 18.2584 13.6636 13.6813Z" fill="white"/>
</svg>
