<svg width="33" height="34" viewBox="0 0 33 34" fill="none" xmlns="http://www.w3.org/2000/svg">
<path fill-rule="evenodd" clip-rule="evenodd" d="M3.3499 15.2555C3.73692 14.6896 7.78159 12.9404 15.555 9.9774C21.9498 7.53967 27.6822 5.52801 28.2945 5.50662C30.5735 5.42683 30.5722 5.89614 28.2683 16.767C27.0886 22.3335 26.1232 26.9601 26.1232 27.0477C26.1232 27.5433 24.664 28.5 23.9082 28.5C23.4221 28.5 22.015 27.7597 20.7811 26.8548C19.5472 25.95 18.2879 25.2097 17.9826 25.2097C17.6773 25.2097 16.7267 25.6724 15.8697 26.2379C14.1611 27.3657 12.8971 27.5462 12.2726 26.752C12.0498 26.4694 11.2318 24.7153 10.4539 22.8546L9.04005 19.4713L6.3563 18.6039C3.32111 17.6229 2.41877 16.6177 3.3499 15.2555ZM12.5268 21.061C12.7508 20.0056 13.5712 18.9399 15.6041 17.0635C17.1289 15.6561 18.1936 14.5025 17.9704 14.5C17.331 14.4926 11.2211 18.2591 11.0227 18.7833C10.9245 19.0423 11.1542 19.9846 11.5331 20.8772L12.2217 22.5L12.5268 21.061ZM27.1695 13.1563C26.5256 16.2855 25.6776 20.5679 25.2843 22.6727C24.8911 24.7775 24.3882 26.5 24.1667 26.5C23.9452 26.5 22.2191 25.3365 20.331 23.914C18.4433 22.4919 16.6983 21.1848 16.4531 21.0102C16.1818 20.8166 17.9446 18.8533 20.9656 15.9851C25.9856 11.2186 27.0387 9.53587 25.0029 9.53587C24.4966 9.53587 20.9584 11.3366 17.14 13.5373L10.1977 17.5388L8.25059 17.0303C7.17976 16.7502 6.16841 16.3902 6.0026 16.2297C5.73172 15.9669 26.7408 7.58045 27.8699 7.50018C28.1779 7.47866 27.937 9.42415 27.1695 13.1563ZM16.0329 23.2296C16.1903 23.4791 16.0114 23.9843 15.6359 24.3526C15.0068 24.9695 14.9532 24.9339 14.9532 23.8991C14.9532 22.7567 15.5152 22.4079 16.0329 23.2296Z" fill="#120E1E"/>
</svg>
