<svg width="31" height="20" viewBox="0 0 31 20" fill="none" xmlns="http://www.w3.org/2000/svg">
<path fill-rule="evenodd" clip-rule="evenodd" d="M1.59394 0.39133C-0.0419705 1.04635 -0.382809 2.29064 0.407128 4.72017C1.51852 8.13809 3.43585 11.6921 5.67675 14.489C7.2642 16.4695 8.38992 17.3863 10.5032 18.4208C15.314 20.7753 19.5771 20.1433 19.5771 17.076C19.5771 15.4669 20.1037 15.5766 21.6406 17.5057C22.3509 18.3973 23.5066 19.3635 24.2089 19.6525C25.7033 20.2682 29.3635 20.0244 30.3064 19.2467C31.7885 18.0237 30.8734 15.4501 27.7714 12.1151L26.4077 10.6493L28.4695 7.10656C29.6032 5.15825 30.5309 3.16806 30.5309 2.68433C30.5309 1.07609 29.5421 0.291662 27.2359 0.0713669C23.9936 -0.238135 22.9728 0.371653 21.2623 3.64174L19.7878 6.46118L19.5771 3.86413C19.4613 2.43598 19.1259 1.02834 18.8323 0.736433C18.1401 0.0487436 12.964 -0.231859 11.4789 0.337726C9.98203 0.911917 9.53122 2.60769 10.4602 4.17112C10.8402 4.81064 11.1511 5.63486 11.1511 6.00215C11.1511 7.41648 10.3827 6.55499 9.13056 3.73722C8.17337 1.58244 7.53468 0.693299 6.72326 0.386728C5.39111 -0.116684 2.85657 -0.114595 1.59394 0.39133ZM6.37192 2.52632C6.59521 2.816 7.09686 3.87579 7.48709 4.88168C8.69016 7.98147 11.0013 11.2632 11.9815 11.2632C12.8153 11.2632 12.849 11.0863 12.6867 7.57895C12.5925 5.55284 12.3679 3.46863 12.1871 2.94737C11.8679 2.02737 11.939 2 14.6252 2H17.3917L17.5124 5.89011C17.6129 9.11748 17.7521 9.80253 18.3307 9.91327C19.3025 10.0994 20.9466 8.19369 22.7043 4.84421L24.1972 2H26.277C28.959 2 28.9573 2.38442 26.2538 6.88211C25.0975 8.80589 24.1513 10.4989 24.1513 10.6442L26.2009 13.2964C28.4531 15.9204 29.3092 17.3267 28.9022 17.7343C28.7563 17.8804 27.7938 18 26.7631 18C25.0529 18 24.6538 17.7794 22.1922 15.4737C18.5905 12.1002 17.6112 12.1869 17.3471 15.9032C17.1848 18.1882 16.5187 18.4084 12.9293 17.3638C11.0235 16.8088 10.0665 16.1832 8.19523 14.2682C5.04228 11.0417 1.29095 3.69137 2.11556 2.35537C2.45827 1.8 5.91945 1.93895 6.37192 2.52632Z" fill="#120E1E"/>
</svg>
