<svg width="33" height="34" viewBox="0 0 33 34" fill="none" xmlns="http://www.w3.org/2000/svg">
<path fill-rule="evenodd" clip-rule="evenodd" d="M3.95874 10.8761C5.61325 7.52203 8.0921 5.20499 11.3742 3.9447C18.1611 1.33895 25.9022 4.2935 29.1187 10.7182C30.2975 13.072 30.5005 13.9777 30.5001 16.8807C30.5001 19.6927 30.2768 20.7539 29.2162 22.9916C26.1475 29.4652 18.4217 32.6219 11.6464 30.1708C9.7839 29.4974 9.40116 29.5006 6.37381 30.2125C4.57824 30.6353 2.98077 30.8523 2.82354 30.6959C2.66631 30.5389 2.89902 29.0787 3.34061 27.4503C4.11418 24.5993 4.11327 24.3967 3.32487 21.9389C2.04547 17.9509 2.25256 14.335 3.95874 10.8761ZM27.6251 22.2087C30.3368 16.0616 27.7069 8.87961 21.8403 6.40906C16.5023 4.16143 11.4095 5.23233 7.66403 9.38939C4.70806 12.6701 3.86961 18.3687 5.7931 22.0993C6.52782 23.5232 6.50626 25.7168 5.73965 27.6308C5.42663 28.4125 5.54203 28.4517 7.1552 28.1095C9.64051 27.5817 10.8701 27.6749 13.1781 28.5657C18.3988 30.58 25.2647 27.5587 27.6251 22.2087ZM10.3774 10.9062C8.34164 13.2611 9.09464 15.9705 12.8313 19.7341C14.9293 21.8473 16.1758 22.7084 17.9749 23.289C21.2297 24.3387 23.4255 23.6702 24.0942 21.4259C24.3398 20.6023 24.0861 20.2906 22.5232 19.4978L20.6596 18.5515L19.6695 19.4764C18.3845 20.6781 17.796 20.6429 15.9696 19.257C13.6058 17.4635 12.8837 16.1284 13.5785 14.837C14.0527 13.9554 14.0343 13.4792 13.4718 12.0701C12.704 10.1477 11.4432 9.67326 10.3774 10.9062Z" fill="#120E1E"/>
</svg>
