<svg width="318" height="74" viewBox="0 0 318 74" fill="none" xmlns="http://www.w3.org/2000/svg">
<g clip-path="url(#clip0_927_43557)">
<path d="M41.6941 24.9736V19.5H7V54.5H41.6941V32.2203H39.0194L40.0893 29.3678L41.6941 24.9736V24.9736ZM40.1657 33.685V52.9582H8.45195V20.9648H40.1657V24.6652C40.1657 25.5132 39.4779 26.0529 38.4081 26.0529H18.9213V47.87H29.7728V33.685H40.1657ZM62.1743 47.6388H58.9647V25.8216H71.4974V28.674H62.1743V29.0595V47.6388ZM81.3554 30.37C85.0999 30.37 88.1566 32.2974 88.1566 36.7687C88.1566 40.315 85.482 43.3216 81.3554 43.3216L78.8335 43.3987V47.7159H75.4711V30.37H81.3554V30.37ZM78.8335 40.6233H80.5148C83.4187 40.6233 84.7178 39.5441 84.7178 36.6145C84.7178 33.9934 83.2658 33.2225 80.744 33.2225H78.8335V40.6233ZM105.122 33.2225H97.6325V37.7709H103.44V40.4692H97.6325V44.9405H105.351V47.6388H94.2701V30.37H105.122V33.2225ZM149.826 47.7159H146.617V40.5463H137.676V47.7159H134.466V30.37H137.676V37.7709H146.617V30.4471H149.826V47.7159ZM254.062 30.293H257.195V42.7819L266.594 30.37H269.651V47.6388H266.212V35.2269L256.965 47.6388H254.062V30.293ZM111.694 30.37H114.903V42.859L124.303 30.4471H127.359V47.7159H123.921V35.3811L114.674 47.7159H111.694V30.37ZM292.271 47.6388H288.985V40.3921H280.044V47.6388H276.834V30.37H280.044V37.6938H288.985V30.37H292.271V47.6388ZM196.06 30.1388C201.409 30.1388 205.306 33.9163 205.306 39.0815C205.306 43.7841 201.485 47.87 196.06 47.87C190.787 47.87 186.966 43.8612 186.966 39.0815C186.89 33.9163 190.863 30.1388 196.06 30.1388M196.06 45.0176C199.651 45.0176 201.868 42.6278 201.868 39.0815C201.868 35.304 199.499 33.0683 196.06 33.0683C192.85 33.0683 190.328 35.5352 190.328 39.0815C190.328 42.6278 192.468 45.0176 196.06 45.0176ZM224.64 30.37V47.6388H221.431V33.0683H216.54C216.54 33.0683 215.852 39.2357 215.394 42.0881C214.859 44.9405 212.643 47.793 209.433 47.793C209.127 47.793 208.592 47.7159 208.287 47.7159L207.752 44.6322L208.745 44.7093C210.885 44.7093 211.726 42.5507 212.031 41.4714C212.566 39.3899 213.178 33.3767 213.407 30.37H224.64V30.37ZM231.06 44.7863C233.199 41.7797 234.346 39.3128 234.346 32.2203V30.37H245.961V44.8634H247.719V52.1872H244.738V47.7159H232.664V52.1872H229.608V44.8634H231.06V44.7863ZM242.752 44.7863V33.1454H237.555V33.5308C237.555 38.696 236.027 42.7048 234.957 44.7863H242.752ZM302.969 47.6388H299.683V30.37H310V33.1454H302.969V47.6388ZM180.547 47.6388L174.28 39.0044L173.975 38.6189L167.708 47.6388H163.582L172.294 36.2291L171.988 35.8436L163.811 25.1278H168.091L173.898 33.3767L174.433 34.0705L180.623 25.1278H184.521L176.191 36.5374L176.42 36.7687L184.75 47.6388H180.547ZM123.462 26.8238C123.462 26.2841 121.628 25.8216 119.488 25.8216C117.272 25.8216 115.515 26.2841 115.515 26.8238C115.515 27.3634 117.272 27.826 119.488 27.826C121.704 27.826 123.462 27.3634 123.462 26.8238Z" fill="#120E1E"/>
</g>
<defs>
<clipPath id="clip0_927_43557">
<rect width="303" height="35" fill="white" transform="translate(7 19.5)"/>
</clipPath>
</defs>
</svg>
