<svg width="201" height="74" viewBox="0 0 201 74" fill="none" xmlns="http://www.w3.org/2000/svg">
<path fill-rule="evenodd" clip-rule="evenodd" d="M7 17.4732V16.7366V16H27.0642H47.1284V16.7366V17.4732H38.9033H30.6782V34.189V50.905L31.4883 50.7322C34.0443 50.1871 36.7606 47.9642 37.9841 45.4166C39.2286 42.825 39.506 41.1175 39.5117 36.0111C39.516 32.3185 39.4257 31.0132 39.079 29.75C38.1125 26.2258 36.5148 24.1319 33.8855 22.943C32.5339 22.3319 32.423 22.2204 32.423 21.4735C32.423 20.48 32.749 20.4471 35.4189 21.17C38.5222 22.0105 40.8028 23.2612 42.7696 25.2019C45.7989 28.1908 46.9806 31.3911 46.9417 36.5022C46.8799 44.653 43.3411 49.6339 36.1549 51.6846C32.9048 52.612 30.2049 52.8288 21.8924 52.8295L14.2281 52.8303V55.415V58L10.6764 57.9317L7.12462 57.8637V39.5714V21.279L10.6764 21.211L14.2281 21.1427L14.2413 27.5949L14.2545 34.0468L14.8632 32.0197C15.7191 29.1673 16.5281 27.2949 17.5769 25.7384C18.5004 24.3681 20.2112 22.6633 21.1711 22.1573C21.6588 21.9 21.7054 21.9361 21.7054 22.571C21.7054 23.0604 21.4063 23.5539 20.6952 24.237C18.622 26.229 17.4055 28.7219 16.1956 33.458C15.1169 37.6798 14.4768 42.3049 14.3044 47.1216L14.1526 51.3571H18.8015H23.4502V34.4151V17.4732H15.2251H7ZM132.452 23.7142C132.288 23.2931 130.735 22.3201 129.379 21.7887C127.935 21.2228 123.787 21.0484 121.902 21.4745C118.862 22.1612 116.621 23.8309 115.461 26.2744C114.885 27.4852 114.801 27.9779 114.8 30.1234C114.798 32.4076 114.857 32.7008 115.614 34.215C116.568 36.1253 117.675 37.1624 119.811 38.1468C122.364 39.3239 126.668 39.4655 129.227 38.4569C130.509 37.9516 132.37 36.6772 132.369 36.3062C132.368 36.1439 132.097 35.6796 131.766 35.2745L131.165 34.5379L130.459 35.1999C127.938 37.5646 122.5 37.7127 119.554 35.4967C116.403 33.1268 116.144 28.0224 119.034 25.2577C120.439 23.9129 122.306 23.302 125.017 23.2985C127.554 23.2956 128.972 23.7019 130.422 24.8474L131.34 25.5724L131.956 24.7968C132.295 24.3703 132.518 23.8832 132.452 23.7142ZM73.2991 23.3523V22.377V21.4018H65.3233H57.3474V22.3839V23.3661H60.7122H64.077V31.1004V38.8348H65.1952H66.3133L66.3791 31.1618L66.4449 23.4888L69.872 23.4206L73.2991 23.3523ZM77.9216 29.75C77.8466 29.75 77.7855 27.8716 77.7855 25.5759V21.4018H76.7885H75.7915V30.1183V38.8348H76.7885H77.7855V35.6492V32.4639L79.942 30.8613C81.1281 29.98 82.1657 29.2599 82.2475 29.2611C82.3295 29.2623 84.135 31.4159 86.2598 34.0468L90.1231 38.8303L91.5563 38.8326C92.3446 38.8338 92.9894 38.7906 92.9894 38.7365C92.9894 38.6828 90.9668 36.2333 88.4948 33.2938C86.0228 30.3542 84.0882 27.8719 84.1953 27.7778C84.3028 27.6835 86.129 26.3579 88.2538 24.8317C91.4925 22.5055 92.6027 21.7484 92.5001 21.507C92.4394 21.3642 91.9546 21.4018 91.235 21.4018H89.6229L83.8402 25.5759C80.6595 27.8716 77.9964 29.75 77.9216 29.75ZM113.209 36.0725C112.385 34.5534 110.258 30.6584 108.483 27.4174L105.256 21.5245L104.17 21.4531L103.084 21.3819L99.8035 27.4687C97.9992 30.8166 95.8832 34.7498 95.101 36.209L93.6791 38.8625L94.9851 38.7871L96.2912 38.712L97.5688 36.3232L98.8467 33.9344L104.126 33.9292L109.406 33.9241L110.731 36.3782L112.057 38.8321L113.382 38.8335L114.707 38.8348L113.209 36.0725ZM137.853 28.7769V25.0892V21.4018H136.732H135.61V30.1183V38.8348H136.732H137.853V34.9062V30.9776H143.711H149.568V34.9062V38.8348H150.565H151.562V30.1183V21.4018H150.572H149.581L149.512 25.0234L149.443 28.6451L143.648 28.7109L137.853 28.7769ZM159.638 36.2402C157.545 34.9597 157.432 34.5264 157.341 27.4788L157.263 21.4018H156.133H155.002L155.089 27.7243L155.176 34.0468L155.874 35.4461C157.169 38.0446 159.611 39.1915 163.775 39.1567C166.765 39.1316 168.612 38.5023 170.153 36.9839C171.826 35.3361 172 34.4301 172 27.3727V21.4018H170.878H169.757V27.3653C169.757 33.062 169.732 33.378 169.196 34.4225C168.174 36.4155 166.204 37.2368 162.856 37.0649C161.141 36.9768 160.627 36.8452 159.638 36.2402ZM99.7634 32.0826L101.891 28.0739C103.061 25.869 104.108 24.1564 104.219 24.2681C104.6 24.6514 108.497 31.9885 108.381 32.1027C108.317 32.1658 106.352 32.1869 104.014 32.1498L99.7634 32.0826ZM67.8157 55.5645L65.564 52.9697C63.833 50.975 63.17 50.3749 62.6977 50.3749H62.0831V53.9352V57.4954H62.6975C63.3046 57.4954 63.3126 57.4662 63.3829 55.0551L63.4539 52.6147L65.6498 55.0551C67.2985 56.8875 67.9969 57.4954 68.4538 57.4954H69.0619V53.9352V50.3749H68.4388H67.8157V52.9697V55.5645ZM82.6861 57.1885C82.6106 57.0198 81.7854 55.4452 80.8525 53.6896C78.5041 49.2702 78.4777 49.2707 76.1006 53.7662C75.1081 55.6431 74.2961 57.2499 74.2961 57.3371C74.2961 57.4242 74.5742 57.4954 74.9142 57.4954C75.3843 57.4954 75.654 57.2605 76.0408 56.5133L76.5495 55.5311H78.5003H80.4514L80.9011 56.5133C81.2784 57.3376 81.4691 57.4954 82.0872 57.4954C82.5835 57.4954 82.7789 57.3952 82.6861 57.1885ZM89.2508 57.4954V53.9352V50.3749H88.6276H88.0045V53.9352V57.4954H88.6276H89.2508ZM96.2296 56.2486V53.3118V50.3749H95.6065H94.9834V53.9352V57.4954H97.8671C100.715 57.4954 100.75 57.4886 100.671 56.943C100.596 56.4247 100.457 56.3861 98.4105 56.3196L96.2296 56.2486ZM118.563 51.6488C118.966 51.1064 118.822 50.9328 117.718 50.631C115.298 49.9688 113.178 50.8606 113.178 52.5413C113.178 53.4556 113.992 54.0702 115.772 54.5011C117.723 54.9733 118.295 55.5064 117.594 56.1975C116.993 56.789 115.329 56.7195 114.431 56.0657C113.753 55.5722 113.718 55.5702 113.317 56.0067C112.928 56.4305 112.942 56.4878 113.557 56.9641C115.495 58.4658 119.16 57.5659 119.16 55.5881C119.16 54.866 118.171 53.8785 117.25 53.6803C115.204 53.2401 114.549 52.9454 114.549 52.4652C114.549 52.172 114.83 51.8447 115.254 51.6446C115.856 51.3607 116.129 51.3666 117.11 51.6846C118.162 52.0261 118.285 52.0229 118.563 51.6488ZM125.89 53.3213V51.8481C125.89 50.4405 125.862 50.3749 125.267 50.3749H124.644V53.9352V57.4954H125.267C125.862 57.4954 125.89 57.4299 125.89 56.0222V54.549H128.008H130.127V56.0222C130.127 57.4299 130.155 57.4954 130.75 57.4954H131.373V53.9352V50.3749H130.75C130.155 50.3749 130.127 50.4405 130.127 51.8481V53.3213H128.008H125.89ZM144.311 56.4978C146.161 54.6762 145.244 51.5196 142.614 50.6538C140.38 49.9182 137.989 50.7874 137.252 52.6044C136.751 53.8365 136.752 54.6271 137.257 55.6743C138.345 57.9325 142.377 58.4032 144.311 56.4978ZM156.976 53.0233C157.08 52.1143 156.998 51.8209 156.472 51.2178C155.865 50.5232 155.754 50.4947 153.329 50.4132L150.814 50.329V53.9121V57.4954H151.424C151.974 57.4954 152.04 57.3822 152.109 56.3291L152.185 55.1628L154.109 55.0401C156.369 54.8957 156.796 54.5959 156.976 53.0233ZM138.458 55.25C137.879 54.1473 138.018 53.356 138.95 52.4374C139.692 51.7069 139.956 51.6026 141.065 51.6026C142.101 51.6026 142.475 51.7281 143.114 52.2913C143.747 52.8482 143.902 53.1811 143.925 54.0331C143.949 54.9296 143.832 55.193 143.142 55.8C142.506 56.3603 142.095 56.5133 141.226 56.5133C139.808 56.5133 138.905 56.101 138.458 55.25ZM152.06 54.0579V52.8303V51.6026H153.631C155.371 51.6026 155.799 51.8528 155.799 52.8708C155.799 53.7535 155.196 54.0579 153.448 54.0579H152.06ZM77.0433 54.549L77.7155 53.1986C78.0853 52.4558 78.4186 51.8481 78.4562 51.8481C78.545 51.8481 79.7795 54.2458 79.7795 54.4181C79.7795 54.4901 79.1638 54.549 78.4114 54.549H77.0433ZM23.4277 54.5647L26.3676 54.4869C27.9844 54.4442 29.6157 54.3852 29.9928 54.3563L30.6782 54.3035V56.1516V58L27.1265 57.9317L23.5748 57.8637L23.5012 56.2142L23.4277 54.5647ZM194 38H192.479H191.032L187.255 33.331C185.178 30.763 183.426 28.662 183.363 28.662C183.299 28.662 182.331 29.3209 181.212 30.1266L179.176 31.591V34.7956V38H178.088H177V29.5V21H178.082H179.165L179.231 25.0611L179.297 29.1222L184.901 25.0611L190.505 21H192.132H193.759L191.243 22.8255C189.859 23.8297 187.895 25.261 186.879 26.0064L185.03 27.3618L189.125 32.2619C191.378 34.957 193.379 37.3198 193.573 37.5125L194 38Z" fill="#120E1E"/>
</svg>
