<svg width="239" height="74" viewBox="0 0 239 74" fill="none" xmlns="http://www.w3.org/2000/svg">
<path fill-rule="evenodd" clip-rule="evenodd" d="M9 37V55H120H231V37V19H120H9V37ZM21.703 20.537C23.5488 20.9711 24.7759 21.5762 25.7442 22.5287C27.3294 24.0882 27.4106 24.4108 27.4982 29.5L27.578 34.12H24.1438H20.7099V30.7713C20.7099 27.071 20.5296 26.3836 19.443 25.9408C18.8229 25.6881 18.6394 25.7135 18.0717 26.1304L17.4165 26.6116L17.3528 36.8342L17.2894 47.0565L17.8258 47.5482C18.5421 48.2046 19.3813 48.1689 20.111 47.4508C20.6938 46.8777 20.7099 46.7651 20.7099 43.2443V39.6268L24.1863 39.6935L27.6626 39.76L27.6497 42.7624C27.6319 46.8669 27.5919 46.935 23.0275 50.6166L19.3681 53.5684L17.1725 53.488C15.3858 53.423 14.7457 53.291 13.7352 52.7793C12.1544 51.9791 11.1373 50.8362 10.4889 49.1306C9.99558 47.8341 9.97582 47.3682 9.97582 37.0878C9.97582 25.1238 10.0278 24.6678 11.5947 22.8671C12.0748 22.3151 12.8962 21.6484 13.42 21.3856C15.6149 20.284 19.1073 19.9262 21.703 20.537ZM225.872 20.6994C228.112 21.2073 229.536 22.9857 229.536 25.2746C229.536 29.614 224.526 31.7488 221.368 28.7555C219.412 26.9025 219.278 24.2032 221.045 22.2242C221.88 21.2884 222.471 20.9212 223.559 20.663C224.58 20.4206 224.646 20.4215 225.872 20.6994ZM44.7098 21.34C44.8023 21.6501 49.5213 41.2677 50.6035 45.8402C50.7824 46.5959 50.9165 46.6929 44.9589 41.7702L39.8109 37.5172L34.631 41.5982C31.7821 43.8429 29.4152 45.6434 29.3715 45.5997C29.3064 45.5342 31.1319 37.365 34.3907 23.14L34.8993 20.92H39.7421C44.1438 20.92 44.5961 20.9582 44.7098 21.34ZM66.2758 24.1L66.2077 27.28L63.8291 27.3486L61.4505 27.4173V40.4886V53.56H60.3788C59.3823 53.56 59.1086 53.3975 56.4756 51.2452L53.644 48.9304V38.1738V27.4173L51.2654 27.3486L48.8868 27.28L48.8187 24.1L48.7507 20.92H57.5473H66.3438L66.2758 24.1ZM84.3824 24.04V27.16H79.9912H75.6V30.4V33.64H79.3813H83.1626V36.88V40.12H79.3813H75.6V43.72V47.32H80.1132H84.6264V50.44V53.56H76.4538H68.2813V37.24V20.92H76.3319H84.3824V24.04ZM103.032 21.76C105.653 23.0949 106.739 25.5921 106.527 29.7998C106.354 33.2262 105.253 35.2943 103.181 36.0851C102.559 36.3225 102.56 36.3244 103.607 36.8142C104.764 37.3554 105.724 38.4393 106.142 39.6753C106.294 40.1238 106.483 43.1891 106.569 46.6C106.655 49.966 106.814 52.9089 106.924 53.14C107.108 53.53 106.862 53.56 103.466 53.56C99.8792 53.56 99.8058 53.5494 99.6614 53.02C99.5806 52.7229 99.5126 50.05 99.5106 47.08C99.5074 42.4228 99.4482 41.5648 99.0803 40.8434C98.5521 39.807 97.7746 39.4082 96.2753 39.4036L95.1165 39.4V46.48V53.56H91.5791H88.0418V37.223V20.8862L94.8296 20.963L101.618 21.04L103.032 21.76ZM124.931 21.4679C127.809 22.7742 129.023 25.5306 129.023 30.76C129.023 36.1406 127.693 39.0186 124.7 40.1205C123.653 40.5057 122.798 40.6 120.357 40.6H117.316V47.08V53.56H113.657H109.998V37.2234V20.8871L117.012 20.9718C122.995 21.0443 124.158 21.117 124.931 21.4679ZM138.785 37.24V53.56H135.125H131.466V37.24V20.92H135.125H138.785V37.24ZM150.007 34.114V47.3078L153.849 47.374L157.691 47.44L157.76 50.5L157.828 53.56H150.258H142.688V37.24V20.92H146.347H150.007V34.114ZM166.84 34.12V47.32H170.621H174.402V50.44V53.56H166.962H159.521V37.24V20.92H163.18H166.84V34.12ZM190.866 21.46C190.937 21.7571 192.09 28.264 193.428 35.92C194.766 43.576 196.013 50.6769 196.2 51.7L196.538 53.56H192.916C188.795 53.56 189.212 53.8113 188.927 51.16C188.849 50.434 188.72 49.3811 188.64 48.82L188.496 47.8H185.974H183.451L183.321 48.58C183.148 49.6182 182.697 53.0562 182.697 53.3373C182.697 53.4645 181.113 53.56 179.009 53.56C175.568 53.56 175.329 53.531 175.437 53.1249C175.5 52.8856 176.798 45.5416 178.32 36.8049L181.087 20.92H185.913C190.716 20.92 190.738 20.9224 190.866 21.46ZM213.833 21.5975C216.443 22.7591 217.393 24.533 217.537 28.5124C217.687 32.662 216.692 35.0478 214.424 35.9802L213.576 36.3287L214.419 36.6772C215.52 37.133 216.289 37.857 216.929 39.04C217.407 39.923 217.461 40.5009 217.602 46.24C217.687 49.672 217.84 52.7229 217.942 53.02L218.127 53.56H214.555H210.983L210.746 52.9444C210.615 52.6058 210.508 49.9218 210.508 46.9802C210.508 43.6847 210.404 41.3387 210.237 40.8686C209.893 39.8963 208.917 39.4 207.348 39.4H206.116V46.48V53.56H202.579H199.042V37.223V20.8862L205.812 20.963C212.285 21.0366 212.636 21.0645 213.833 21.5975ZM223.66 21.6189C222.042 22.1282 220.754 23.7868 220.754 25.36C220.754 27.1406 222.392 28.9197 224.291 29.2022C225.541 29.3879 227.228 28.5813 228.01 27.4245C228.665 26.4542 228.753 24.6222 228.195 23.5605C227.402 22.053 225.233 21.124 223.66 21.6189ZM226.316 22.888C226.729 23.2938 226.68 24.6429 226.24 25.0022C225.922 25.2618 225.919 25.3401 226.219 25.5717C226.411 25.7193 226.605 26.3529 226.651 26.98C226.732 28.0842 226.713 28.12 226.062 28.12C225.44 28.12 225.389 28.047 225.389 27.1684C225.389 26.4734 225.262 26.1498 224.917 25.9684C224.2 25.5911 224.169 25.6305 224.169 26.92C224.169 28.0401 224.128 28.12 223.559 28.12H222.949V25.36V22.6H224.486C225.357 22.6 226.15 22.725 226.316 22.888ZM224.169 24.28C224.169 24.8315 224.279 25 224.641 25C225.129 25 225.535 24.2262 225.268 23.8022C225.185 23.669 224.903 23.56 224.643 23.56C224.279 23.56 224.169 23.7273 224.169 24.28ZM206.279 26.6001C206.19 26.6879 206.116 28.3619 206.116 30.3201V33.88H207.474C208.221 33.88 209.054 33.7634 209.325 33.6208C210.067 33.2296 210.508 31.9218 210.507 30.1077C210.507 28.1843 209.961 26.896 209.044 26.6507C208.227 26.4326 206.482 26.4004 206.279 26.6001ZM95.1165 30.28V33.88H96.5912C97.812 33.88 98.1645 33.7833 98.6365 33.3189C99.6943 32.2782 99.7556 28.5597 98.7358 27.2846C98.3089 26.7506 98.0696 26.68 96.6844 26.68H95.1165V30.28ZM117.316 30.76V34.84H118.753C120.81 34.84 121.286 34.4013 121.461 32.3476C121.665 29.9536 121.417 27.7725 120.873 27.1811C120.498 26.7734 120.124 26.68 118.864 26.68H117.316V30.76ZM39.6677 27.28C39.3423 28.3206 37.9866 35.5967 38.0979 35.7059C38.1627 35.7698 38.9727 35.7902 39.8978 35.751L41.5794 35.68L40.6984 31.24C40.1783 28.6182 39.7563 26.9966 39.6677 27.28ZM185.887 27.4254C185.685 28.9557 184.16 41.4772 184.16 41.6116C184.16 41.7153 184.989 41.8 186.001 41.8H187.842L187.712 41.02C187.64 40.5911 187.246 37.432 186.836 34C186.174 28.4603 185.953 26.9306 185.887 27.4254Z" fill="#120E1E"/>
</svg>
