<svg width="184" height="74" viewBox="0 0 184 74" fill="none" xmlns="http://www.w3.org/2000/svg">
<path fill-rule="evenodd" clip-rule="evenodd" d="M66.3574 32.3714V45.7429H69.5974H72.8374V32.3714V19H69.5974H66.3574V32.3714ZM75.9479 32.3714V45.7429H79.1879H82.4279V32.3714V19H79.1879H75.9479V32.3714ZM150.08 32.3714V45.7429H153.316H156.552L156.62 38.6071L156.689 31.4714H162.676C167.37 31.4714 168.756 31.5475 169.092 31.8242C169.47 32.1361 169.52 32.9675 169.52 38.9599V45.7429H172.76H176L175.994 38.35C175.989 31.6928 175.941 30.852 175.505 29.9016C174.901 28.5817 174.123 27.8318 172.63 27.1324C171.55 26.6261 170.919 26.5762 164.077 26.4571L156.689 26.3286L156.618 22.6643L156.546 19H153.313H150.08V32.3714ZM7 37.118V55H10.24H13.4801V40.2143V25.4286H20.2258H26.9716L27.2432 26.1357C27.3985 26.5394 27.4791 28.2034 27.4311 30.0142C27.3575 32.8006 27.2862 33.2295 26.8443 33.5499C26.4599 33.8284 25.359 33.9148 22.1786 33.9161C17.6053 33.9179 17.0814 34.0637 16.0456 35.622C15.47 36.4885 15.3969 38.6151 15.9111 39.5354C16.0977 39.8692 19.5055 43.4813 23.4837 47.5624L30.717 54.9828L103.359 54.9915L176 55V51.9143V48.8286H104.911H33.8223L28.9026 43.9429L23.9829 39.0571L25.1468 39.0551C27.1724 39.0517 29.6421 38.5354 30.7748 37.8784C31.4436 37.4906 32.1499 36.7706 32.5892 36.0288C33.3072 34.8174 33.3093 34.8007 33.3912 29.2839L33.4736 23.7538L32.7308 22.3431C32.1017 21.1484 31.7549 20.8141 30.4643 20.1592L28.9405 19.3857L17.9702 19.3109L7 19.2361V37.118ZM85.5383 33.0143V45.7429H88.6488H91.7592V38.5429V31.3429H93.5736H95.388V28.9V26.4571H93.5736H91.7592V23.3714V20.2857H88.6488H85.5383V33.0143ZM41.0851 26.9107C39.5779 27.4387 38.8298 27.919 38.1611 28.7889C37.1242 30.1379 37.0353 30.8003 37.1178 36.5526L37.1971 42.1002L37.977 43.2002C38.4488 43.8657 39.2655 44.56 40.0436 44.9573L41.3306 45.6143H50.0206H58.7109L60.0489 44.9143C62.6503 43.5533 62.9893 42.5224 62.982 35.9974C62.9758 30.4408 62.7967 29.6262 61.2708 28.2065C59.6018 26.6539 59.2008 26.5916 50.4164 26.5214C43.2935 26.4643 42.2339 26.5086 41.0851 26.9107ZM100.401 26.8195C98.8233 27.3186 97.7248 28.1941 97.1778 29.3888C96.7553 30.312 96.6955 31.1289 96.6955 35.9714C96.6955 42.0644 96.8611 42.8739 98.3958 44.2859C99.8935 45.6637 100.586 45.7429 111.116 45.7429H120.79V43.1714V40.6L112.69 40.5961C103.56 40.592 103.345 40.5558 103.214 39.0044L103.135 38.0635L110.731 37.9818C118.877 37.8941 119.154 37.8511 120.402 36.486C120.851 35.9938 120.931 35.4859 121.004 32.6281C121.1 28.9249 120.896 28.2201 119.433 27.1846C118.592 26.5896 118.533 26.5855 110.033 26.532C103.517 26.4913 101.222 26.5597 100.401 26.8195ZM129.473 26.6299C127.478 27.0655 125.932 28.1304 125.13 29.6221C124.604 30.6005 124.542 31.1279 124.46 35.3286C124.403 38.2721 124.481 40.4545 124.676 41.3233C125.031 42.9125 126.069 44.2201 127.634 45.0509C128.661 45.5958 128.998 45.6169 137.962 45.6907L147.229 45.767V43.1943V40.6216L139.431 40.5465C132.059 40.4755 131.614 40.4442 131.266 39.9723C130.741 39.259 130.741 32.6839 131.266 31.9705C131.614 31.4987 132.061 31.4671 139.431 31.393L147.229 31.3146V28.8859V26.4571L138.61 26.487C133.87 26.5034 129.758 26.5677 129.473 26.6299ZM55.7301 31.6756L56.3781 32.0009V35.9714V39.942L55.7301 40.277C54.8182 40.7484 44.2456 40.6252 43.7544 40.1374C43.5266 39.9109 43.3892 38.7907 43.3285 36.666C43.2225 32.9369 43.4444 31.8173 44.3394 31.5697C45.5431 31.2364 55.0307 31.3246 55.7301 31.6756ZM114.33 31.7736C114.729 32.1706 114.718 33.2974 114.311 33.7849C114.042 34.1064 113.073 34.1714 108.561 34.1714H103.134L103.214 33.0845C103.336 31.4264 103.718 31.3207 109.308 31.4025C112.492 31.4491 114.125 31.5697 114.33 31.7736Z" fill="#120E1E"/>
</svg>
