<svg width="102" height="74" viewBox="0 0 102 74" fill="none" xmlns="http://www.w3.org/2000/svg">
<path d="M64.0689 15.2761L64.2 6.5L57.449 15.2761L46.7377 15.2761L53.2766 20.7L46.5256 29.4761L57.3179 24.0522L63.8569 29.4761L63.9879 20.7L74.7802 15.2761L64.0689 15.2761Z" fill="#120E1E"/>
<path d="M23.1208 22.066C16.5181 23.2702 14.3172 28.4979 14.042 30.9612H23.1208C23.1208 29.7022 24.3128 28.0189 25.0464 27.3347C28.0039 25.4872 30.1589 26.8329 30.4799 28.2926C31.3603 33.6571 25.8031 34.0631 23.1208 33.6982L22.2265 38.7616C23.4874 38.6247 26.0781 39.2543 26.3532 42.8671C26.6283 46.4799 23.2582 47.6568 21.5387 47.7937C17.2469 48.1221 17.7329 43.9619 18.5124 41.8407H9.98409C7.1229 48.7379 11.1763 51.9676 13.5606 52.7202H27.5227C31.0441 51.297 37.6102 45.5585 40.4531 42.8671L36.3263 52.7202H44.1671L51.1825 43.9619L49.1192 52.7202H56.96L74.8424 31.6454L66.1763 55.1835L36.3263 54.4993L31.9245 67.5H44.1671L45.2676 61.4786H75.8053L73.8795 67.5H85.9846L90.524 55.1835H78.694L93 15.3603H81.5827L60.9491 39.5827L63.7003 30.9612H55.7219L48.4314 39.5827L52.0079 30.9612H44.1671C41.5862 33.9266 37.115 39.088 35.8661 40.609C36.3554 39.4412 35.1438 37.1337 34.4005 36.0246C43.4243 28.2516 38.1604 23.4801 34.4005 22.066H23.1208Z" fill="#120E1E"/>
</svg>
