<svg width="286" height="74" viewBox="0 0 286 74" fill="none" xmlns="http://www.w3.org/2000/svg">
<path d="M28.2605 19.8695V46.8982H25.1186L10.5085 25.6765H10.2467V46.8982H7V19.8695H10.142L24.8044 41.144H25.0662V19.8695H28.2605Z" fill="#120E1E"/>
<path d="M42.7692 47.3205C40.8316 47.3205 39.1603 46.8894 37.7551 46.0271C36.3587 45.1561 35.2809 43.9419 34.5215 42.3846C33.771 40.8185 33.3957 38.9972 33.3957 36.9208C33.3957 34.8444 33.771 33.0143 34.5215 31.4306C35.2809 29.8381 36.3369 28.5975 37.6897 27.7089C39.0512 26.8115 40.6396 26.3627 42.455 26.3627C43.5023 26.3627 44.5365 26.5387 45.5577 26.8906C46.5788 27.2426 47.5083 27.8145 48.3461 28.6063C49.184 29.3894 49.8517 30.4276 50.3491 31.721C50.8466 33.0143 51.0953 34.6068 51.0953 36.4985V37.8183H35.595V35.1259H47.9534C47.9534 33.9822 47.7265 32.9615 47.2726 32.0641C46.8275 31.1667 46.1904 30.4584 45.3613 29.9393C44.5409 29.4202 43.5721 29.1606 42.455 29.1606C41.2244 29.1606 40.1596 29.4686 39.2607 30.0845C38.3704 30.6916 37.6853 31.4834 37.2053 32.46C36.7253 33.4367 36.4853 34.4837 36.4853 35.6011V37.3959C36.4853 38.9268 36.7471 40.2246 37.2708 41.2892C37.8031 42.345 38.5406 43.1501 39.4832 43.7044C40.4258 44.2499 41.5211 44.5226 42.7692 44.5226C43.5808 44.5226 44.314 44.4082 44.9685 44.1795C45.6318 43.9419 46.2035 43.59 46.6835 43.1237C47.1635 42.6486 47.5345 42.0591 47.7963 41.3552L50.7812 42.1998C50.467 43.2205 49.9389 44.1179 49.1971 44.8922C48.4552 45.6576 47.5388 46.2559 46.4479 46.687C45.3569 47.1094 44.1307 47.3205 42.7692 47.3205Z" fill="#120E1E"/>
<path d="M68.4677 38.6101V26.6267H71.5573V46.8982H68.4677V43.4668H68.2583C67.787 44.4962 67.0539 45.3717 66.0589 46.0931C65.0639 46.8058 63.8072 47.1621 62.2886 47.1621C61.0318 47.1621 59.9146 46.885 58.9371 46.3307C57.9596 45.7676 57.1916 44.9229 56.633 43.7968C56.0745 42.6618 55.7952 41.232 55.7952 39.5075V26.6267H58.8848V39.2964C58.8848 40.7745 59.295 41.9535 60.1154 42.8333C60.9445 43.7132 62.0005 44.1531 63.2835 44.1531C64.0515 44.1531 64.8327 43.9551 65.6269 43.5592C66.4298 43.1633 67.1019 42.5562 67.643 41.7379C68.1928 40.9197 68.4677 39.8771 68.4677 38.6101Z" fill="#120E1E"/>
<path d="M77.635 46.8982V19.8695H80.8817V31.9057H95.1776V19.8695H98.4243V46.8982H95.1776V34.8092H80.8817V46.8982H77.635Z" fill="#120E1E"/>
<path d="M110.423 47.3733C109.148 47.3733 107.992 47.1313 106.953 46.6474C105.915 46.1547 105.09 45.4465 104.479 44.5226C103.868 43.59 103.563 42.4638 103.563 41.144C103.563 39.9827 103.79 39.0412 104.243 38.3198C104.697 37.5895 105.304 37.0176 106.063 36.6041C106.822 36.1905 107.66 35.8826 108.577 35.6802C109.502 35.4691 110.431 35.3019 111.365 35.1787C112.587 35.0204 113.578 34.9016 114.337 34.8224C115.105 34.7344 115.664 34.5892 116.013 34.3869C116.371 34.1845 116.549 33.8326 116.549 33.3311V33.2255C116.549 31.9233 116.196 30.9115 115.489 30.19C114.791 29.4686 113.73 29.1078 112.308 29.1078C110.833 29.1078 109.676 29.4334 108.839 30.0845C108.001 30.7355 107.412 31.4306 107.071 32.1697L104.139 31.1139C104.662 29.8821 105.361 28.9231 106.233 28.2368C107.115 27.5417 108.075 27.0578 109.113 26.7851C110.161 26.5035 111.191 26.3627 112.203 26.3627C112.849 26.3627 113.591 26.4419 114.429 26.6003C115.275 26.7499 116.091 27.0622 116.877 27.5373C117.671 28.0124 118.33 28.7295 118.854 29.6885C119.377 30.6476 119.639 31.9321 119.639 33.5422V46.8982H116.549V44.1531H116.392C116.183 44.593 115.834 45.0637 115.345 45.5652C114.856 46.0667 114.206 46.4935 113.394 46.8454C112.583 47.1973 111.592 47.3733 110.423 47.3733ZM110.894 44.5754C112.116 44.5754 113.146 44.3335 113.983 43.8495C114.83 43.3656 115.467 42.7409 115.895 41.9755C116.331 41.21 116.549 40.405 116.549 39.5603V36.7097C116.419 36.868 116.131 37.0132 115.685 37.1452C115.249 37.2684 114.743 37.3783 114.167 37.4751C113.599 37.5631 113.045 37.6423 112.504 37.7127C111.972 37.7743 111.54 37.827 111.208 37.871C110.405 37.9766 109.655 38.1482 108.956 38.3857C108.267 38.6145 107.708 38.962 107.281 39.4284C106.862 39.8859 106.652 40.5106 106.652 41.3024C106.652 42.3846 107.049 43.2029 107.844 43.7572C108.647 44.3027 109.663 44.5754 110.894 44.5754Z" fill="#120E1E"/>
<path d="M137.951 38.6101V26.6267H141.04V46.8982H137.951V43.4668H137.741C137.27 44.4962 136.537 45.3717 135.542 46.0931C134.547 46.8058 133.29 47.1621 131.772 47.1621C130.515 47.1621 129.398 46.885 128.42 46.3307C127.443 45.7676 126.675 44.9229 126.116 43.7968C125.557 42.6618 125.278 41.232 125.278 39.5075V26.6267H128.368V39.2964C128.368 40.7745 128.778 41.9535 129.598 42.8333C130.427 43.7132 131.484 44.1531 132.766 44.1531C133.535 44.1531 134.316 43.9551 135.11 43.5592C135.913 43.1633 136.585 42.5562 137.126 41.7379C137.676 40.9197 137.951 39.8771 137.951 38.6101Z" fill="#120E1E"/>
<path d="M160.943 31.1667L158.167 31.9585C157.993 31.4922 157.735 31.0391 157.395 30.5992C157.063 30.1505 156.609 29.7809 156.033 29.4906C155.457 29.2002 154.72 29.0551 153.821 29.0551C152.59 29.0551 151.565 29.341 150.744 29.9129C149.933 30.476 149.527 31.1931 149.527 32.0641C149.527 32.8384 149.806 33.4498 150.365 33.8986C150.923 34.3473 151.796 34.7212 152.983 35.0204L155.968 35.7594C157.766 36.1993 159.105 36.8724 159.987 37.7787C160.868 38.6761 161.309 39.8331 161.309 41.2496C161.309 42.411 160.978 43.4492 160.314 44.3643C159.66 45.2793 158.743 46.0008 157.565 46.5287C156.387 47.0566 155.017 47.3205 153.454 47.3205C151.403 47.3205 149.706 46.8718 148.362 45.9744C147.018 45.0769 146.167 43.766 145.809 42.0415L148.741 41.3024C149.021 42.3934 149.549 43.2117 150.325 43.7572C151.111 44.3027 152.136 44.5754 153.402 44.5754C154.842 44.5754 155.985 44.2675 156.832 43.6516C157.687 43.0269 158.115 42.279 158.115 41.408C158.115 40.7041 157.87 40.1146 157.382 39.6395C156.893 39.1556 156.142 38.7949 155.13 38.5573L151.779 37.7655C149.937 37.3255 148.584 36.6437 147.72 35.7198C146.865 34.7872 146.437 33.6214 146.437 32.2225C146.437 31.0787 146.756 30.0669 147.393 29.187C148.039 28.3072 148.916 27.6165 150.024 27.115C151.141 26.6135 152.407 26.3627 153.821 26.3627C155.811 26.3627 157.373 26.8027 158.508 27.6825C159.651 28.5623 160.463 29.7237 160.943 31.1667Z" fill="#120E1E"/>
<path d="M195.075 28.316C194.787 27.4274 194.408 26.6311 193.936 25.9272C193.474 25.2146 192.92 24.6075 192.274 24.106C191.637 23.6044 190.912 23.2217 190.101 22.9578C189.289 22.6938 188.399 22.5618 187.43 22.5618C185.841 22.5618 184.397 22.9754 183.097 23.8024C181.796 24.6295 180.762 25.848 179.994 27.4581C179.226 29.0683 178.842 31.0435 178.842 33.3839C178.842 35.7242 179.23 37.6995 180.007 39.3096C180.784 40.9197 181.836 42.1383 183.162 42.9653C184.489 43.7924 185.981 44.2059 187.639 44.2059C189.175 44.2059 190.528 43.8759 191.698 43.2161C192.876 42.5474 193.792 41.606 194.447 40.3918C195.11 39.1688 195.442 37.7303 195.442 36.0762L196.437 36.2873H188.373V33.3839H198.584V36.2873C198.584 38.5133 198.113 40.449 197.17 42.0943C196.236 43.7396 194.944 45.0153 193.295 45.9216C191.654 46.819 189.769 47.2677 187.639 47.2677C185.265 47.2677 183.18 46.7046 181.382 45.5784C179.592 44.4522 178.196 42.8509 177.192 40.7745C176.197 38.6981 175.7 36.2345 175.7 33.3839C175.7 31.2459 175.984 29.3234 176.551 27.6165C177.127 25.9008 177.939 24.4403 178.986 23.2349C180.033 22.0295 181.273 21.1057 182.704 20.4634C184.135 19.8211 185.711 19.5 187.43 19.5C188.844 19.5 190.162 19.7156 191.384 20.1467C192.614 20.569 193.709 21.1717 194.67 21.9548C195.638 22.729 196.446 23.6572 197.091 24.7394C197.737 25.8128 198.182 27.005 198.427 28.316H195.075Z" fill="#120E1E"/>
<path d="M203.726 46.8982V26.6267H206.71V29.6885H206.92C207.286 28.6855 207.95 27.8717 208.91 27.247C209.87 26.6223 210.952 26.31 212.156 26.31C212.383 26.31 212.667 26.3144 213.007 26.3232C213.348 26.332 213.605 26.3451 213.78 26.3627V29.5302C213.675 29.5038 213.435 29.4642 213.06 29.4114C212.693 29.3498 212.305 29.319 211.895 29.319C210.917 29.319 210.044 29.5258 209.276 29.9393C208.517 30.344 207.915 30.9071 207.47 31.6286C207.033 32.3413 206.815 33.1551 206.815 34.0701V46.8982H203.726Z" fill="#120E1E"/>
<path d="M224.999 47.3205C223.184 47.3205 221.591 46.885 220.221 46.014C218.859 45.1429 217.795 43.9243 217.026 42.3582C216.267 40.7921 215.888 38.962 215.888 36.868C215.888 34.7564 216.267 32.9131 217.026 31.3382C217.795 29.7633 218.859 28.5403 220.221 27.6693C221.591 26.7983 223.184 26.3627 224.999 26.3627C226.815 26.3627 228.403 26.7983 229.764 27.6693C231.135 28.5403 232.199 29.7633 232.959 31.3382C233.727 32.9131 234.111 34.7564 234.111 36.868C234.111 38.962 233.727 40.7921 232.959 42.3582C232.199 43.9243 231.135 45.1429 229.764 46.014C228.403 46.885 226.815 47.3205 224.999 47.3205ZM224.999 44.5226C226.378 44.5226 227.513 44.1663 228.403 43.4536C229.293 42.7409 229.952 41.8039 230.38 40.6425C230.807 39.4811 231.021 38.223 231.021 36.868C231.021 35.5131 230.807 34.2505 230.38 33.0803C229.952 31.9101 229.293 30.9643 228.403 30.2428C227.513 29.5214 226.378 29.1606 224.999 29.1606C223.62 29.1606 222.486 29.5214 221.595 30.2428C220.705 30.9643 220.046 31.9101 219.619 33.0803C219.191 34.2505 218.977 35.5131 218.977 36.868C218.977 38.223 219.191 39.4811 219.619 40.6425C220.046 41.8039 220.705 42.7409 221.595 43.4536C222.486 44.1663 223.62 44.5226 224.999 44.5226Z" fill="#120E1E"/>
<path d="M251.5 38.6101V26.6267H254.589V46.8982H251.5V43.4668H251.29C250.819 44.4962 250.086 45.3717 249.091 46.0931C248.096 46.8058 246.839 47.1621 245.32 47.1621C244.064 47.1621 242.946 46.885 241.969 46.3307C240.991 45.7676 240.223 44.9229 239.665 43.7968C239.106 42.6618 238.827 41.232 238.827 39.5075V26.6267H241.917V39.2964C241.917 40.7745 242.327 41.9535 243.147 42.8333C243.976 43.7132 245.032 44.1531 246.315 44.1531C247.083 44.1531 247.865 43.9551 248.659 43.5592C249.462 43.1633 250.134 42.5562 250.675 41.7379C251.225 40.9197 251.5 39.8771 251.5 38.6101Z" fill="#120E1E"/>
<path d="M260.248 54.5V26.6267H263.233V29.8469H263.599C263.826 29.495 264.14 29.0463 264.542 28.5008C264.952 27.9465 265.537 27.4537 266.296 27.0226C267.064 26.5827 268.103 26.3627 269.412 26.3627C271.105 26.3627 272.598 26.7895 273.889 27.6429C275.181 28.4964 276.189 29.7061 276.913 31.2722C277.638 32.8384 278 34.686 278 36.8152C278 38.962 277.638 40.8229 276.913 42.3978C276.189 43.9639 275.185 45.1781 273.902 46.0403C272.619 46.8938 271.14 47.3205 269.464 47.3205C268.173 47.3205 267.138 47.105 266.362 46.6738C265.585 46.2339 264.987 45.7368 264.568 45.1825C264.149 44.6194 263.826 44.1531 263.599 43.7836H263.338V54.5H260.248ZM263.285 36.7624C263.285 38.2934 263.508 39.6439 263.953 40.8141C264.398 41.9755 265.048 42.8861 265.903 43.546C266.759 44.1971 267.806 44.5226 269.045 44.5226C270.337 44.5226 271.415 44.1795 272.279 43.4932C273.152 42.7981 273.806 41.8655 274.243 40.6953C274.688 39.5163 274.91 38.2054 274.91 36.7624C274.91 35.3371 274.692 34.0525 274.256 32.9087C273.828 31.7562 273.178 30.8455 272.305 30.1768C271.441 29.4994 270.355 29.1606 269.045 29.1606C267.789 29.1606 266.733 29.4818 265.877 30.1241C265.022 30.7575 264.376 31.6462 263.94 32.79C263.503 33.925 263.285 35.2491 263.285 36.7624Z" fill="#120E1E"/>
</svg>
