<svg width="177" height="74" viewBox="0 0 177 74" fill="none" xmlns="http://www.w3.org/2000/svg">
<path d="M13.1629 16.7929C11.9304 16.8835 10.5193 17.2004 9.48735 17.6192C6.315 18.9057 4.51734 21.4032 4.22927 24.9156C4.18552 25.4627 4.21469 26.6511 4.28397 27.1981C4.61944 29.8164 5.82639 31.8122 7.89389 33.1591C8.63046 33.642 9.69155 34.1022 10.6542 34.3663C11.1428 34.4983 11.2996 34.5322 11.832 34.6303C13.1301 34.8642 14.8512 34.8869 16.2076 34.6832C20.339 34.0644 23.0738 31.7632 23.9161 28.1979C23.9744 27.9602 24.0328 27.6735 24.0473 27.5641L24.0729 27.3679H21.6079C19.2633 27.3679 19.143 27.3717 19.143 27.4358C19.143 27.4736 19.0919 27.6735 19.0299 27.8772C18.8877 28.3601 18.5085 29.16 18.2605 29.4957C17.6115 30.3823 16.7473 30.9332 15.6206 31.1746C15.132 31.2802 15.0809 31.284 14.4938 31.3142C12.2039 31.4236 10.4938 30.5144 9.62956 28.7336C9.03885 27.5151 8.87841 25.4325 9.26128 23.9234C9.76448 21.9314 11.0115 20.743 12.9988 20.3657C13.513 20.2676 14.8804 20.2676 15.4054 20.3657C16.9551 20.6562 18.0235 21.4673 18.6981 22.8632C18.8476 23.1726 19.081 23.8404 19.1247 24.0969C19.143 24.195 19.1721 24.2441 19.2305 24.2554C19.2706 24.2667 20.3754 24.2705 21.6772 24.2667L24.0473 24.2554L24.0401 24.0667C24.0291 23.8177 23.8176 22.9576 23.6499 22.4822C22.9498 20.5166 21.5933 18.9811 19.679 17.9851C18.5049 17.3777 17.0791 16.9816 15.4784 16.8231C15.0299 16.7778 13.6151 16.759 13.1629 16.7929Z" fill="#120E1E"/>
<path d="M26.2169 22.3954C26.2169 25.6362 26.2315 27.8546 26.2534 28.1791C26.4029 30.2616 26.9535 31.7179 28 32.8044C29.0283 33.8646 30.4212 34.4492 32.5252 34.702C33.1888 34.7812 33.9837 34.819 35.0594 34.819C36.2445 34.819 36.6128 34.8039 37.3129 34.7397C39.1543 34.5624 40.6274 34.0721 41.6083 33.31C41.9912 33.0157 42.5491 32.4158 42.7825 32.0537C43.395 31.1029 43.7597 29.9334 43.9019 28.4658C43.9238 28.2206 43.9384 26.0663 43.9384 22.6105V17.1438H39.1616V22.5086C39.158 25.4626 39.1507 27.9451 39.1397 28.0281C39.0376 28.9072 38.8407 29.5221 38.5089 30.0239C38.3156 30.3144 37.9182 30.6615 37.5681 30.8502C36.9264 31.1935 36.281 31.3104 35.0594 31.3066C33.8671 31.3029 33.2982 31.201 32.6492 30.8728C31.6282 30.3559 31.1614 29.4656 31.0156 27.7641C31.0046 27.6584 30.9974 25.2287 30.9974 22.3577L30.9937 17.1438H26.2169V22.3954Z" fill="#120E1E"/>
<path d="M46.819 34.4983L49.2001 34.4907L51.5775 34.4794L51.5885 31.6575L51.5958 28.8393L54.2649 28.8468L56.9304 28.8582L57.131 29.1977C57.244 29.3826 57.9259 30.5219 58.6515 31.7254C59.3771 32.9289 60.0481 34.0456 60.1429 34.204L60.3179 34.4983H62.9251C65.1275 34.4983 65.5286 34.4907 65.514 34.4455C65.503 34.4191 64.8868 33.4194 64.1466 32.231C61.7655 28.4016 61.6561 28.2243 61.6488 28.1904C61.6452 28.1753 61.7655 28.1036 61.9187 28.0357C63.4428 27.3415 64.4018 26.2097 64.7774 24.6553C64.9962 23.7499 65.0254 22.6029 64.8503 21.7276C64.5222 20.0676 63.5778 18.8189 62.0536 18.0304C61.3279 17.6531 60.5586 17.4192 59.4355 17.2306C59.0891 17.1702 58.4911 17.1664 52.9376 17.1551L46.819 17.14V34.4983ZM58.1155 20.6939C58.7536 20.7656 59.1948 20.9655 59.5485 21.3353C59.9095 21.7125 60.0845 22.1955 60.1101 22.8783C60.1465 23.8819 59.7491 24.6742 59.0271 25.0364C58.4619 25.3231 58.6734 25.308 54.9431 25.3231L51.5958 25.3344V20.6524H54.6769C56.6278 20.6524 57.8931 20.6675 58.1155 20.6939Z" fill="#120E1E"/>
<path d="M67.4575 34.4983L83.0822 34.4794L83.0932 32.7139L83.1005 30.952H72.2343V17.1438H67.4575V34.4983Z" fill="#120E1E"/>
<path d="M122.592 15.019C122.549 15.0265 122.465 15.0831 122.41 15.1359C122.355 15.1925 121.816 15.9508 121.214 16.8186C119.201 19.7273 119.391 19.4896 119.114 19.4859C118.982 19.4859 118.636 19.335 117.203 18.6521C114.362 17.2939 114.41 17.3166 114.257 17.3203C114.012 17.3241 113.783 17.5656 113.786 17.8108C113.786 17.89 114.078 19.0143 114.432 20.3121C114.785 21.6099 115.088 22.7342 115.106 22.8134C115.146 22.9983 115.095 23.1794 114.971 23.3001C114.913 23.3529 113.867 23.9151 112.641 24.5527C110.949 25.4279 110.395 25.7297 110.344 25.809C110.297 25.8807 110.275 25.9825 110.275 26.1297C110.275 26.3221 110.289 26.3598 110.384 26.4579C110.464 26.5409 111.077 26.8238 112.754 27.5557C113.998 28.099 115.052 28.5668 115.099 28.597C115.205 28.6687 115.325 28.8687 115.325 28.9818C115.325 29.0573 115.063 30.3702 114.483 33.2299C114.366 33.8034 114.304 34.1731 114.319 34.2523C114.351 34.4334 114.556 34.6145 114.749 34.6372C114.957 34.6636 114.596 34.856 118.775 32.498C119.095 32.3169 119.413 32.1547 119.478 32.1396C119.737 32.083 119.803 32.1509 121.269 33.992C123.092 36.2858 123.077 36.2708 123.23 36.3349C123.395 36.4066 123.566 36.3726 123.712 36.2481C123.861 36.1161 123.876 36.0783 123.945 35.6671C124.452 32.6263 124.766 30.8984 124.831 30.8078C124.981 30.5928 125.035 30.5852 126.447 30.5588C127.158 30.5475 128.273 30.5249 128.926 30.5136C129.579 30.5022 130.162 30.4758 130.228 30.457C130.476 30.3778 130.622 30.0533 130.527 29.8005C130.498 29.7326 129.754 28.8309 128.871 27.7972C127.989 26.7672 127.231 25.8618 127.187 25.7863C127.096 25.6392 127.077 25.4468 127.143 25.3261C127.165 25.2846 127.869 24.3263 128.707 23.1945C129.776 21.7571 130.242 21.1006 130.261 21.0101C130.297 20.8063 130.166 20.5536 129.98 20.4668C129.896 20.4253 129.772 20.3989 129.703 20.4064C129.633 20.414 129.287 20.4291 128.933 20.4441C128.58 20.4555 128.248 20.4743 128.197 20.4819C128.146 20.4894 127.829 20.5083 127.486 20.5234C127.147 20.5347 126.826 20.5536 126.775 20.5573C126.6 20.58 125.294 20.6328 124.981 20.6328C124.671 20.6328 124.66 20.629 124.536 20.5045C124.437 20.4064 124.397 20.3196 124.354 20.1272C124.324 19.9914 124.051 18.8445 123.748 17.5769C123.161 15.1246 123.172 15.1548 122.92 15.0454C122.804 14.9926 122.745 14.9888 122.592 15.019Z" fill="#120E1E"/>
<path d="M141.543 16.7544C141.211 16.777 140.419 16.8864 140.048 16.9581C137.316 17.4939 135.242 18.7879 133.98 20.7422C133.269 21.84 132.817 23.251 132.685 24.7639C132.642 25.2581 132.66 26.6729 132.718 27.103C132.97 29.0837 133.696 30.6833 134.906 31.9321C136.394 33.4714 138.476 34.3995 141.141 34.7088C141.904 34.7956 143.362 34.7956 144.124 34.7088C148.689 34.192 151.636 31.7472 152.442 27.8123C152.485 27.6085 152.518 27.4199 152.518 27.386C152.518 27.3369 152.234 27.3294 150.06 27.3294H147.603L147.544 27.5821C147.45 27.967 147.242 28.5178 147.063 28.8649C146.276 30.3702 144.945 31.1587 143.001 31.2719C142.512 31.302 141.747 31.2417 141.247 31.1398C138.844 30.6343 137.495 28.6989 137.495 25.7637C137.495 23.07 138.618 21.2062 140.649 20.5234C141.262 20.3196 141.871 20.2291 142.673 20.2329C142.983 20.2329 143.304 20.2442 143.384 20.2555C143.894 20.3309 144.077 20.3649 144.376 20.4479C145.663 20.8025 146.607 21.625 147.176 22.8926C147.322 23.2133 147.519 23.7981 147.577 24.0735L147.603 24.198H150.06C152.234 24.198 152.518 24.1904 152.518 24.1414C152.518 24.0433 152.372 23.368 152.274 23.0096C151.749 21.093 150.571 19.4821 148.901 18.3918C147.566 17.524 145.732 16.9279 143.894 16.7733C143.523 16.7393 141.914 16.728 141.543 16.7544Z" fill="#120E1E"/>
<path d="M90.6391 34.4598L93.0202 34.4523L95.3976 34.441L95.4085 31.619L95.4158 28.8007L98.085 28.8083L100.754 28.8196L101.596 30.2155C102.06 30.9814 102.803 32.2226 103.252 32.9696C103.7 33.7166 104.094 34.358 104.123 34.3957C104.178 34.4598 104.328 34.4636 106.763 34.4598C108.831 34.4561 109.349 34.4448 109.338 34.407C109.327 34.3655 108.816 33.5355 106.953 30.5437C106.712 30.1552 106.275 29.4497 105.979 28.9781L105.447 28.1179L105.564 28.0764C105.779 28.0009 106.501 27.601 106.734 27.4275C108.061 26.4503 108.707 25.1261 108.787 23.236C108.835 22.0966 108.594 20.961 108.116 20.1046C107.391 18.7992 106.158 17.8976 104.481 17.4411C104.021 17.3203 103.369 17.1958 102.964 17.1619C102.814 17.1468 102.65 17.1279 102.599 17.1128C102.548 17.1015 99.8389 17.0864 96.5754 17.0789L90.6391 17.0638V34.4598ZM102.326 20.7007C102.927 20.8516 103.427 21.2213 103.668 21.6967C103.886 22.1306 103.926 22.3343 103.926 22.953C103.926 23.4661 103.919 23.5189 103.817 23.8207C103.565 24.5564 103.132 24.9639 102.351 25.1902C102.074 25.2695 102.03 25.2695 98.745 25.2846L95.4158 25.2959V20.6101L98.745 20.6252C101.717 20.6366 102.096 20.6441 102.326 20.7007Z" fill="#120E1E"/>
<path d="M154.67 34.456L157.058 34.4598H159.446L159.454 32.0377L159.465 29.6156L161.014 28.1895C162.564 26.7672 162.564 26.7672 162.626 26.8502C162.662 26.8955 163.224 27.7217 163.88 28.6875C164.537 29.6534 165.379 30.8908 165.751 31.4416C166.126 31.9925 166.739 32.8941 167.118 33.4487L167.8 34.4598H170.663C172.927 34.4598 173.521 34.4485 173.499 34.4108C173.459 34.3466 172.843 33.4789 170.641 30.4041C169.572 28.9101 168.362 27.2162 167.946 26.639C167.534 26.058 166.929 25.2129 166.6 24.7526C166.272 24.2961 165.981 23.8849 165.951 23.8358C165.897 23.7528 165.966 23.6887 169.299 20.6479C171.169 18.9388 172.803 17.4524 172.927 17.3392C173.051 17.226 173.146 17.1166 173.135 17.1015C173.124 17.0826 171.756 17.0675 170.094 17.0675H167.071L163.344 20.5837C161.299 22.5191 159.581 24.1339 159.534 24.1716L159.446 24.2433V17.0675H157.058L154.67 17.0713V34.456Z" fill="#120E1E"/>
<path d="M11.2413 40.9812C11.2194 41.0076 10.8547 41.8112 10.4281 42.7657C10.0015 43.7202 9.5457 44.7388 9.41807 45.0293C9.2868 45.3198 9.08261 45.7763 8.96228 46.0479C8.65233 46.7459 8.59764 46.8666 8.05797 48.0664C7.79179 48.6587 7.4308 49.4623 7.25577 49.8584C7.08074 50.2508 6.1655 52.3031 5.21744 54.4159C4.27303 56.5248 3.5 58.2603 3.5 58.2716C3.5 58.2829 4.62673 58.2867 6.00506 58.2829L8.51013 58.2716L9.15189 56.6984L9.79001 55.1214L18.3554 55.1402L19.6097 58.2716L22.1111 58.2829C23.4858 58.2867 24.6125 58.2791 24.6125 58.2678C24.6125 58.2452 24.3208 57.585 23.9453 56.7436C23.814 56.4531 22.3372 53.1482 22.1002 52.6163C22.0273 52.4503 20.8276 49.7603 19.4347 46.6365L16.9004 40.9548L14.0891 40.9434C11.8539 40.9359 11.2704 40.9434 11.2413 40.9812ZM14.7126 46.2177C15.0481 47.0364 15.6716 48.5681 16.1019 49.6207C16.5322 50.6733 16.8822 51.5524 16.8822 51.575C16.8822 51.6014 15.9342 51.6127 14.0526 51.6127C11.8028 51.6127 11.2267 51.6014 11.2413 51.5637C11.2814 51.4694 13.0243 47.2062 13.5312 45.965C13.8193 45.2557 14.0672 44.686 14.0818 44.7011C14.0964 44.7162 14.3808 45.399 14.7126 46.2177Z" fill="#120E1E"/>
<path d="M26.0966 40.9623C26.082 40.9736 26.0711 44.8784 26.0711 49.6396V58.2904L28.4522 58.2829L30.8296 58.2716L30.8661 46.8176L34.4942 51.7485C36.4888 54.4574 38.2464 56.8417 38.3959 57.0454C38.5454 57.2492 38.8152 57.6114 38.9902 57.8528L39.3111 58.2904H44.4488L44.4306 40.9548H39.6539V46.7006C39.6539 49.8584 39.6466 52.4427 39.6356 52.4427C39.621 52.4389 36.9628 48.836 32.3684 42.5846C31.7704 41.7697 31.249 41.0679 31.2125 41.0227L31.1432 40.9397L28.6309 40.9359C27.2489 40.9359 26.1076 40.9472 26.0966 40.9623Z" fill="#120E1E"/>
<path d="M47.293 58.2942L52.2266 58.2791C57.4664 58.2678 57.3789 58.2678 58.5968 58.0792C62.2796 57.5095 64.5368 55.8155 65.452 52.9445C65.7765 51.9221 65.9042 51.0204 65.9078 49.7452C65.9078 48.4436 65.8422 47.7834 65.6161 46.8779C65.4484 46.2102 65.3426 45.9121 65.0472 45.2934C63.9205 42.9279 61.6051 41.532 58.1045 41.1057C56.9814 40.9698 56.7444 40.9661 52.026 40.9472L47.293 40.9283V58.2942ZM56.7991 44.5728C58.0243 44.7388 58.8447 45.0331 59.4975 45.5348C60.6242 46.4063 61.142 47.9494 61.0326 50.1225C60.9888 51.0506 60.8357 51.741 60.533 52.3861C59.8329 53.8726 58.4874 54.5856 56.0808 54.7403C55.811 54.7554 54.8046 54.7743 53.8492 54.778L52.1062 54.7856V44.4747L54.2321 44.4936C55.8912 44.5087 56.4527 44.5237 56.7991 44.5728Z" fill="#120E1E"/>
<path d="M102.986 40.9812C100.36 41.1509 98.1032 41.9319 96.404 43.2637C96.0138 43.5693 95.3429 44.2484 95.0366 44.6445C94.4823 45.3651 94.0666 46.1687 93.7822 47.0591C93.4796 48.0211 93.352 48.8702 93.352 49.9832C93.352 50.7905 93.3957 51.2772 93.527 51.9639C94.2234 55.5404 96.9546 57.9776 101.181 58.7887C102.118 58.9698 102.504 59 103.824 59C104.933 59 105.155 58.9887 105.68 58.9132C107.245 58.6906 108.521 58.302 109.695 57.6946C112.306 56.3402 113.815 54.1784 114.187 51.2659C114.238 50.8509 114.249 49.4889 114.206 48.9834C114.118 47.9572 113.823 46.8704 113.396 45.9951C112.04 43.1958 109.123 41.4301 105.192 41.0265C104.663 40.9736 103.514 40.951 102.986 40.9812ZM104.809 44.5275C106.114 44.7086 107.11 45.1614 107.872 45.9159C108.39 46.4252 108.721 46.927 108.988 47.5986C109.502 48.9077 109.546 50.6962 109.09 52.111C108.488 53.9823 107 55.1631 104.878 55.4536C104.065 55.5668 102.814 55.514 102.092 55.3404C100.076 54.8575 98.7595 53.488 98.3548 51.4545C98.2345 50.8434 98.1907 50.0888 98.2381 49.4663C98.3621 47.9497 98.7851 46.9044 99.6456 46.0178C100.543 45.0859 101.728 44.5879 103.296 44.4823C103.606 44.4596 104.521 44.4898 104.809 44.5275Z" fill="#120E1E"/>
<path d="M73.6688 58.6793H78.4456L78.4529 55.8649L78.4638 53.0542H81.122C82.5842 53.0579 83.7839 53.0617 83.7912 53.0693C83.7948 53.073 84.0719 53.5333 84.4074 54.0954C84.7429 54.6538 85.3664 55.6913 85.793 56.3968C86.2196 57.1023 86.701 57.9059 86.8651 58.1775L87.1641 58.6793H89.7749C91.846 58.6793 92.3784 58.668 92.3638 58.6303C92.3565 58.6076 92.145 58.2605 91.9007 57.8682C90.4239 55.5065 88.5096 52.4128 88.5096 52.3864C88.5096 52.3713 88.6372 52.2996 88.794 52.228C89.4868 51.911 90.0155 51.5338 90.4896 51.0244C91.1496 50.3152 91.5288 49.5154 91.7257 48.4213C91.7877 48.0704 91.8023 47.8325 91.8059 47.21C91.8095 46.3271 91.7476 45.8933 91.5142 45.2029C91.2444 44.403 90.9381 43.9013 90.3364 43.2863C89.3227 42.245 88.1121 41.7055 86.1394 41.4113C85.7675 41.3547 85.0492 41.3471 79.6963 41.3358L73.6688 41.3207V58.6793ZM85.2935 44.9426C86.1431 45.1274 86.6827 45.633 86.8942 46.4554C86.9817 46.795 86.9817 47.5875 86.8906 47.9233C86.6499 48.8287 85.9352 49.421 84.9945 49.4965C84.8523 49.5078 83.3208 49.5191 81.5887 49.5229L78.4456 49.5304V44.8709H81.7018C84.7647 44.8709 84.9726 44.8746 85.2935 44.9426Z" fill="#120E1E"/>
<path d="M116.404 58.6793H132.047L132.04 56.9137L132.029 55.1518L121.199 55.133L121.181 41.3245H116.404V58.6793Z" fill="#120E1E"/>
<path d="M134.418 58.6793H150.06V55.133L139.194 55.1518V41.3245H134.418V58.6793Z" fill="#120E1E"/>
</svg>
