<svg width="243" height="74" viewBox="0 0 243 74" fill="none" xmlns="http://www.w3.org/2000/svg">
<path d="M40 57C52.7025 57 63 46.7025 63 34C63 21.2975 52.7025 11 40 11C27.2975 11 17 21.2975 17 34C17 46.7025 27.2975 57 40 57Z" fill="#120E1E"/>
<path d="M15.4164 40L13 40.5993C13.7384 43.6182 14.9913 46.4595 16.6918 49.1009C17.0721 49.7003 17.4973 50.2774 17.9224 50.8545C18.0566 51.0099 18.2804 51.0543 18.4594 50.9211L19.8466 49.9001C20.0256 49.7669 20.0479 49.5449 19.9137 49.3673C17.8105 46.6148 16.2667 43.4184 15.4164 40Z" fill="#120E1E"/>
<path d="M53 8.8731C50.9891 7.89343 48.8442 7.15867 46.6099 6.66884C42.8563 5.84502 39.0357 5.77822 35.2821 6.49071C31.6626 7.15867 28.2441 8.51686 25.1161 10.4985C22.0328 12.5023 19.374 15.0406 17.2291 18.0241C15.0395 21.1413 13.4978 24.6147 12.6712 28.3552C11.8445 32.0958 11.7775 35.9032 12.4924 39.6438C12.5148 39.7551 12.5371 39.8664 12.5595 40L14.9725 39.3988C14.3022 36.0145 14.3022 32.4521 15.0842 28.8896C18.1452 14.907 34.1203 4.64269 47.1015 7.55945" fill="#120E1E"/>
<path d="M61 14.6823C59.6488 13.2754 58.1346 12.0046 56.5039 10.87C55.5255 10.1893 54.5238 9.59929 53.4755 9.03199C53.359 8.96391 53.2192 9.00929 53.1493 9.12275L53.0328 9.30429C52.9629 9.41775 53.0095 9.57659 53.126 9.64467C53.9414 10.0985 54.7101 10.575 55.4789 11.1197C57.1329 12.277 58.6704 13.5704 60.0449 15L61 14.6823Z" fill="#120E1E"/>
<path d="M68.5313 28.8876C67.8679 25.3248 66.5191 21.96 64.5512 18.881C63.9099 17.8694 63.1802 16.9017 62.4284 16L61.544 16.3299C62.2737 17.2096 62.9591 18.1553 63.6004 19.1229C65.5683 22.1799 66.9171 25.5447 67.5805 29.1295C68.2659 32.8242 68.2217 36.5629 67.4036 40.2797C66.7844 43.0727 65.7673 45.7118 64.3743 48.1529C64.3522 48.1749 64.2416 48.021 64.2195 48.043L62.4727 49.8904C61.6766 49.7144 61.8314 49.2086 62.0968 48.7248C62.2294 48.5048 61.9641 48.2629 61.7651 48.4169C59.7087 49.8244 62.3179 52.0016 63.5119 50.4841C63.8878 49.9563 64.6175 49.0986 64.9492 48.5488C66.5412 45.9317 67.6689 43.0727 68.3323 40.0597C69.1504 36.321 69.2167 32.5823 68.5313 28.8876Z" fill="#120E1E"/>
<path d="M26.3686 19.0494C28.5866 14.3559 36.1365 14.5561 39.6986 18.8715C37.7047 18.6713 33 18.9605 29.8187 21.652C30.2892 20.4063 31.0061 19.2941 30.3116 18.6713C29.6171 18.0262 28.1385 17.9595 26.3686 19.0494ZM47.3829 49.2348C47.002 49.5907 45.3442 49.2348 45.2322 48.8789C45.0978 48.523 45.4114 47.7444 45.4114 47.7444C42.4094 50.0134 37.4134 54.6624 37.3686 59C38.8921 57.6431 43.2831 53.0608 46.5764 52.1488C50.0041 51.1923 57.2627 54.5512 58.5173 56.264C57.0835 49.7464 49.8248 48.9679 48.1222 47.2996C48.0998 47.2996 47.7637 48.9011 47.3829 49.2348ZM36.2933 25.567C28.5418 26.5235 23.3218 31.4617 22 35.0208C24.0387 32.9521 28.2505 30.9056 33.6273 31.1503C34.9715 31.217 37.8167 25.3668 36.2933 25.567ZM40.169 32.9298C42.1853 31.7954 43.7312 33.6194 45.0978 35.6214C44.9409 33.8641 43.4175 30.9056 41.7373 29.7489C40.3707 30.0603 39.7882 31.7509 40.169 32.9298ZM37.2566 38.7133C37.2342 40.2259 37.7047 44.4745 42.1405 45.8982C39.609 44.1186 39.4521 41.1379 41.8045 41.0267C39.7434 39.5808 37.2566 38.7133 37.2566 38.7133ZM47.2261 48.5452C47.0692 49.0568 46.3747 48.8789 46.0163 48.8122C45.7699 48.7677 45.8595 48.434 45.8595 48.434C47.9878 38.5353 31.0285 37.4009 27.0407 32.6184C26.9511 32.5072 30.9389 31.5507 34.0081 31.8176C35.3971 32.04 39.2729 25.0776 36.7413 24.9886C31.3646 24.8329 26.7271 28.7479 25.9206 29.1928C26.055 24.8552 30.7373 19.5166 38.9593 19.4053C40.0794 19.3831 44.5377 20.2951 44.9633 20.4508C45.8147 20.2729 62.2363 14.6451 66 14C64.1405 14.7341 52.8941 18.6935 47.831 21.3406C47.831 21.3406 44.6945 23.3203 45.4562 23.8097C46.2179 24.2768 49.3096 23.8987 49.2648 24.566C46.7108 24.5882 45.4786 27.7469 42.2974 28.7701C39.2953 29.7266 38.3544 31.6619 40.169 34.3534C43.6191 39.4251 49.7352 39.9812 47.2261 48.5452ZM42.7902 21.5185C42.7006 21.8967 42.947 22.2748 43.3503 22.3638C43.7536 22.4528 44.1344 22.2081 44.224 21.83C44.3136 21.4518 44.0672 21.0737 43.664 20.9847C43.2607 20.8957 42.8574 21.1404 42.7902 21.5185ZM44.7393 44.2521C44.7393 44.2521 43.8432 45.0306 43.664 46.2096C44.6049 45.1641 45.4562 45.6757 45.4562 45.6757C45.3442 45.4533 44.9633 44.7415 44.7393 44.2521ZM48.167 43.6738C48.167 43.6738 48.4358 44.7415 48.2342 45.52C48.6823 45.0529 49.2872 44.9417 49.8024 45.3421C49.332 44.2076 48.7047 43.7405 48.167 43.6738Z" fill="#838189"/>
<path d="M64 49C64.5523 49 65 48.5523 65 48C65 47.4477 64.5523 47 64 47C63.4477 47 63 47.4477 63 48C63 48.5523 63.4477 49 64 49Z" fill="#120E1E"/>
<path d="M18 41C19.1046 41 20 40.3284 20 39.5C20 38.6716 19.1046 38 18 38C16.8954 38 16 38.6716 16 39.5C16 40.3284 16.8954 41 18 41Z" fill="#120E1E"/>
<path d="M90.0851 23L97 42H93.3617L91.6596 37.2722H85.2979L83.6383 42H80L86.9574 23H90.0851ZM88.5319 27.1951L85.9149 34.653H91.0426L88.5319 27.1951Z" fill="#120E1E"/>
<path d="M103.601 22V37.2477C103.601 37.7658 103.735 38.1712 103.981 38.464C104.227 38.7568 104.585 38.8919 105.054 38.8919C105.278 38.8919 105.502 38.8468 105.77 38.7793C106.038 38.7117 106.284 38.6216 106.508 38.509L107 41.2793C106.508 41.5045 105.949 41.6847 105.3 41.8198C104.652 41.955 104.07 42 103.556 42C102.415 42 101.543 41.7072 100.939 41.0991C100.313 40.491 100 39.6351 100 38.509V22H103.601Z" fill="#120E1E"/>
<path d="M111.418 41.4046C110.489 41.0153 109.696 40.4657 109.039 39.8015C108.382 39.1145 107.884 38.3359 107.521 37.4198C107.159 36.5267 107 35.5649 107 34.5802C107 33.5496 107.181 32.5878 107.521 31.6718C107.861 30.7557 108.36 29.9542 109.017 29.2672C109.674 28.5802 110.467 28.0305 111.396 27.6183C112.325 27.2061 113.39 27 114.545 27C115.701 27 116.743 27.2061 117.672 27.6183C118.601 28.0305 119.372 28.5573 120.029 29.2443C120.686 29.9313 121.162 30.7099 121.502 31.626C121.841 32.5191 122 33.458 122 34.4427C122 34.6718 122 34.9008 121.977 35.1298C121.977 35.3588 121.955 35.542 121.909 35.6794H110.852C110.897 36.2519 111.033 36.7557 111.26 37.1908C111.486 37.626 111.758 38.0153 112.098 38.313C112.438 38.6336 112.846 38.8626 113.276 39.0229C113.707 39.1832 114.16 39.2748 114.636 39.2748C115.361 39.2748 116.041 39.0916 116.698 38.7481C117.355 38.3817 117.785 37.9237 118.012 37.3282L121.162 38.2214C120.64 39.3206 119.802 40.2366 118.647 40.9466C117.491 41.6565 116.109 42 114.5 42C113.39 42 112.347 41.7939 111.418 41.4046ZM117.06 30.6641C116.358 30 115.52 29.6794 114.5 29.6794C114.002 29.6794 113.548 29.771 113.118 29.9313C112.687 30.0916 112.302 30.3435 111.985 30.6641C111.668 30.9847 111.396 31.3511 111.169 31.7863C110.965 32.2214 110.829 32.7252 110.807 33.2519H118.239C118.148 32.1985 117.763 31.3282 117.06 30.6641Z" fill="#120E1E"/>
<path d="M128.756 32.393L128.978 32.8811L129.244 32.393L132.234 28H135.911L130.927 35.0333L136 42H132.323L129.222 37.6513L128.978 37.2076L128.756 37.6513L125.677 42H122L127.051 35.0333L122.089 28H125.744L128.756 32.393Z" fill="#120E1E"/>
<path d="M145 23H157V26.2407H148.485V31.146H155.581V34.1425H148.485V42H145.021V23H145Z" fill="#120E1E"/>
<path d="M161.481 22C162.315 22 162.981 22.82 162.981 23.8223C162.981 24.8246 162.315 25.6446 161.5 25.6446H161.481C160.667 25.6446 160 24.8246 160 23.8223C160 22.82 160.667 22 161.481 22ZM160.111 27.6492H162.907C162.963 27.6492 163 27.6948 163 27.7631V41.8861C163 41.9544 162.963 42 162.907 42H160.111C160.056 42 160.019 41.9544 160.019 41.8861V27.7631C160 27.7175 160.056 27.6492 160.111 27.6492Z" fill="#120E1E"/>
<path d="M168.894 41.4487C167.759 41.0594 166.801 40.5099 166 39.8001L167.336 37.4873C168.204 38.1056 169.028 38.5865 169.852 38.907C170.675 39.2276 171.477 39.3879 172.278 39.3879C172.991 39.3879 173.547 39.2505 173.97 38.9757C174.371 38.7009 174.594 38.3117 174.594 37.785C174.594 37.2584 174.349 36.892 173.859 36.663C173.369 36.434 172.59 36.1592 171.499 35.8387C170.586 35.5868 169.807 35.3349 169.161 35.083C168.516 34.8541 168.004 34.5793 167.603 34.2587C167.202 33.961 166.913 33.5947 166.735 33.2054C166.557 32.8161 166.468 32.3353 166.468 31.7857C166.468 31.053 166.601 30.3889 166.891 29.7936C167.158 29.1982 167.558 28.6945 168.048 28.2823C168.538 27.8701 169.139 27.5496 169.807 27.3206C170.475 27.0916 171.21 27 171.989 27C173.035 27 174.037 27.1603 174.95 27.458C175.863 27.7785 176.709 28.2823 177.488 28.9692L176.041 31.2133C175.328 30.6637 174.638 30.2515 173.97 29.9997C173.302 29.7478 172.635 29.6104 171.967 29.6104C171.365 29.6104 170.853 29.7478 170.43 29.9997C170.03 30.2515 169.807 30.6637 169.807 31.2362C169.807 31.488 169.852 31.6941 169.963 31.8773C170.052 32.0376 170.208 32.1979 170.43 32.3124C170.653 32.4498 170.92 32.5642 171.276 32.6787C171.633 32.7932 172.056 32.9306 172.568 33.0451C173.525 33.297 174.371 33.5489 175.039 33.8236C175.729 34.0755 176.286 34.3732 176.731 34.7167C177.176 35.0372 177.488 35.4265 177.688 35.8616C177.889 36.2966 178 36.8233 178 37.4186C178 38.8383 177.488 39.9603 176.464 40.7618C175.44 41.5861 174.059 41.9983 172.301 41.9983C171.165 42.0212 170.007 41.8151 168.894 41.4487Z" fill="#120E1E"/>
<path d="M189.451 41.9773V33.9318C189.451 32.7955 189.251 31.9545 188.829 31.4318C188.43 30.8864 187.831 30.6136 187.099 30.6136C186.788 30.6136 186.433 30.6818 186.079 30.8409C185.724 30.9773 185.391 31.1818 185.058 31.4545C184.747 31.7273 184.437 32.0455 184.171 32.4091C183.904 32.7727 183.705 33.1818 183.572 33.6136V42H180V22H183.572V30.2955C184.082 29.3636 184.792 28.6591 185.679 28.1364C186.567 27.6364 187.543 27.3864 188.608 27.3864C189.517 27.3864 190.249 27.5455 190.826 27.8636C191.403 28.1818 191.846 28.6136 192.157 29.1364C192.468 29.6591 192.689 30.2727 192.823 30.9545C192.956 31.6364 193 32.3182 193 33.0455V42L189.451 41.9773Z" fill="#120E1E"/>
<path d="M198.491 22C199.329 22 200 22.8191 200 23.8203C200 24.8214 199.329 25.6405 198.509 25.6405H198.491C197.671 25.6405 197 24.8214 197 23.8203C197 22.8191 197.671 22 198.491 22ZM197 27.6428H200V42H197V27.6428Z" fill="#120E1E"/>
<path d="M212.451 40.9783V33.2826C212.451 32.1739 212.251 31.3696 211.852 30.8696C211.452 30.3696 210.92 30.1087 210.232 30.1087C209.877 30.1087 209.5 30.1739 209.145 30.3261C208.768 30.4565 208.413 30.6522 208.08 30.913C207.747 31.1739 207.459 31.4783 207.193 31.8261C206.927 32.1739 206.727 32.5652 206.594 32.9783V41H203V27.2391H206.239V29.7826C206.749 28.913 207.503 28.2391 208.48 27.7391C209.456 27.2609 210.565 27 211.785 27C212.65 27 213.36 27.1522 213.915 27.4783C214.469 27.7826 214.891 28.1957 215.201 28.7174C215.512 29.2174 215.712 29.8043 215.823 30.4565C215.933 31.1087 216 31.7609 216 32.413V40.9783H212.451Z" fill="#120E1E"/>
<path d="M221.841 41.3308C221.041 40.9385 220.378 40.4077 219.784 39.7385C219.212 39.0692 218.755 38.2846 218.457 37.3846C218.137 36.4846 218 35.5385 218 34.5462C218 33.4846 218.16 32.5154 218.503 31.5923C218.823 30.6923 219.303 29.8846 219.875 29.1923C220.47 28.5 221.178 27.9692 222.002 27.5769C222.825 27.1846 223.739 27 224.723 27C225.843 27 226.826 27.2538 227.672 27.7615C228.518 28.2692 229.204 28.9615 229.776 29.8154V27.2538H233V41.1231C233 42.2077 232.794 43.1538 232.383 44.0077C231.971 44.8615 231.422 45.5769 230.713 46.1769C230.005 46.7769 229.159 47.2154 228.175 47.5385C227.192 47.8615 226.117 48 224.974 48C223.396 48 222.07 47.7462 220.995 47.2154C219.921 46.6846 219.006 45.9462 218.229 44.9769L220.241 42.9923C220.79 43.6846 221.476 44.2154 222.322 44.6077C223.168 45 224.037 45.1846 224.974 45.1846C225.546 45.1846 226.095 45.1154 226.62 44.9538C227.146 44.7923 227.604 44.5615 228.015 44.2154C228.427 43.8923 228.747 43.4538 228.976 42.9462C229.204 42.4385 229.319 41.8154 229.319 41.1V39.2538C228.838 40.0846 228.175 40.7308 227.306 41.1923C226.438 41.6538 225.523 41.8846 224.517 41.8846C223.511 41.9077 222.619 41.7231 221.841 41.3308ZM226.872 38.7462C227.238 38.6077 227.581 38.4462 227.901 38.2154C228.221 37.9846 228.495 37.7308 228.724 37.4308C228.953 37.1308 229.136 36.8077 229.273 36.4846V33C228.953 32.1462 228.427 31.4538 227.718 30.9462C227.009 30.4385 226.277 30.1615 225.5 30.1615C224.928 30.1615 224.425 30.2769 223.968 30.5308C223.511 30.7846 223.122 31.1077 222.779 31.5231C222.459 31.9385 222.184 32.4231 222.024 32.9538C221.841 33.4846 221.773 34.0385 221.773 34.6154C221.773 35.2154 221.864 35.7692 222.07 36.2769C222.276 36.7846 222.55 37.2462 222.916 37.6385C223.282 38.0308 223.694 38.3308 224.174 38.5615C224.654 38.7923 225.18 38.8846 225.752 38.8846C226.117 38.9308 226.506 38.8846 226.872 38.7462Z" fill="#120E1E"/>
</svg>
