<svg width="221" height="74" viewBox="0 0 221 74" fill="none" xmlns="http://www.w3.org/2000/svg">
<path d="M8.85897 59.5C15.2938 48.1434 41.1764 34.9416 58.0501 59.5C50.8525 53.8691 30.9378 45.9859 8.85897 59.5Z" fill="#120E1E"/>
<path d="M12.6772 34.3095L11.98 41.3296L16.1632 36.287L20.1472 41.3296V34.3095L26.3224 25.1142L16.1632 31.7387L7 25.1142L12.6772 34.3095Z" fill="#120E1E"/>
<path d="M19.3006 25.2116C19.3006 26.6587 18.1189 27.8318 16.6612 27.8318C15.2035 27.8318 14.0218 26.6587 14.0218 25.2116C14.0218 23.7645 15.2035 22.5915 16.6612 22.5915C18.1189 22.5915 19.3006 23.7645 19.3006 25.2116Z" fill="#120E1E"/>
<path d="M46.8713 34.3095L46.1741 41.3296L50.3573 36.287L54.3413 41.3296V34.3095L60.5165 25.1142L50.3573 31.7387L41.1941 25.1142L46.8713 34.3095Z" fill="#120E1E"/>
<path d="M53.4947 25.2116C53.4947 26.6587 52.313 27.8318 50.8553 27.8318C49.3976 27.8318 48.2159 26.6587 48.2159 25.2116C48.2159 23.7645 49.3976 22.5915 50.8553 22.5915C52.313 22.5915 53.4947 23.7645 53.4947 25.2116Z" fill="#120E1E"/>
<path d="M28.8786 32.9542L27.8776 43.033L33.8835 35.7933L39.6034 43.033V32.9542L48.4692 19.7523L33.8835 29.2634L20.7277 19.7523L28.8786 32.9542Z" fill="#120E1E"/>
<path d="M38.3879 18.2618C38.3879 20.3394 36.6913 22.0236 34.5985 22.0236C32.5057 22.0236 30.8091 20.3394 30.8091 18.2618C30.8091 16.1842 32.5057 14.5 34.5985 14.5C36.6913 14.5 38.3879 16.1842 38.3879 18.2618Z" fill="#120E1E"/>
<path d="M90.3394 37.5882L90.9252 32.3188H90.7055L88.9484 36.3163L83.018 45.8011H81.334L75.0376 36.2799L73.317 32.3551H73.0974L73.8662 37.5518V50.3437H68.7411V24.9053H73.6465L81.0412 36.6433L82.4323 39.4415H82.6153L83.8233 36.5706L90.8886 24.9053H95.7573V50.3437H90.3394V37.5882Z" fill="#120E1E"/>
<path d="M102.133 37.6245H112.127V42.1308H102.133V37.6245Z" fill="#120E1E"/>
<path d="M137.226 30.9015C137.226 31.5314 137.128 32.1613 136.933 32.7912C136.762 33.3969 136.481 33.9662 136.091 34.4992C135.7 35.0322 135.188 35.4925 134.553 35.8802C133.919 36.2678 133.15 36.5464 132.247 36.716V36.934C133.052 37.0067 133.809 37.1884 134.517 37.4792C135.225 37.7699 135.835 38.1817 136.347 38.7147C136.884 39.2235 137.299 39.8534 137.592 40.6044C137.909 41.3313 138.068 42.1913 138.068 43.1846C138.068 44.5171 137.75 45.6558 137.116 46.6006C136.506 47.5455 135.7 48.3208 134.7 48.9264C133.699 49.5321 132.552 49.9803 131.259 50.271C129.965 50.5618 128.647 50.7071 127.305 50.7071C126.866 50.7071 126.28 50.7071 125.548 50.7071C124.84 50.7071 124.071 50.6829 123.242 50.6344C122.436 50.6102 121.607 50.5618 120.752 50.4891C119.923 50.4164 119.166 50.3074 118.483 50.162V25.087C118.995 25.0143 119.569 24.9417 120.203 24.869C120.862 24.7963 121.558 24.7357 122.29 24.6873C123.046 24.6388 123.815 24.6025 124.596 24.5783C125.377 24.554 126.158 24.5419 126.939 24.5419C128.208 24.5419 129.453 24.6388 130.673 24.8326C131.893 25.0022 132.991 25.3293 133.968 25.8138C134.944 26.2742 135.725 26.9162 136.311 27.7399C136.921 28.5636 137.226 29.6175 137.226 30.9015ZM127.232 46.3463C127.915 46.3463 128.562 46.2857 129.172 46.1646C129.807 46.0434 130.356 45.8496 130.819 45.5831C131.308 45.2924 131.686 44.9411 131.954 44.5292C132.247 44.0931 132.394 43.5601 132.394 42.9302C132.394 42.155 132.223 41.5372 131.881 41.0769C131.539 40.6166 131.088 40.2774 130.527 40.0593C129.99 39.8171 129.38 39.6717 128.696 39.6233C128.037 39.5506 127.366 39.5142 126.683 39.5142H123.681V46.1282C123.827 46.1767 124.035 46.213 124.303 46.2372C124.596 46.2615 124.913 46.2857 125.255 46.3099C125.597 46.3099 125.938 46.322 126.28 46.3463C126.646 46.3463 126.963 46.3463 127.232 46.3463ZM125.511 35.5168C125.877 35.5168 126.305 35.5168 126.793 35.5168C127.305 35.4925 127.732 35.4562 128.074 35.4077C129.099 35.0928 129.965 34.6688 130.673 34.1358C131.381 33.5786 131.735 32.8276 131.735 31.8827C131.735 31.2528 131.6 30.744 131.332 30.3564C131.063 29.9688 130.697 29.6659 130.234 29.4479C129.794 29.2298 129.294 29.0845 128.733 29.0118C128.172 28.9391 127.598 28.9028 127.012 28.9028C126.305 28.9028 125.658 28.9149 125.072 28.9391C124.486 28.9634 124.023 28.9997 123.681 29.0481V35.5168H125.511Z" fill="#120E1E"/>
<path d="M160.055 36.3163L160.348 33.082H160.165L158.298 36.3526L147.792 50.3437H143.765V24.9053H149.183V38.6057L148.817 41.9854H149.036L151.013 38.6057L161.409 24.9053H165.473V50.3437H160.055V36.3163Z" fill="#120E1E"/>
<path d="M191.781 29.6296H183.654V50.3437H178.236V29.6296H170.109V24.9053H191.781V29.6296Z" fill="#120E1E"/>
<path d="M207.056 44.929H198.417L196.33 50.3437H190.912L200.943 24.7236H204.933L215 50.3437H209.253L207.056 44.929ZM199.918 40.6771H205.775L203.798 35.3714L202.92 31.3376H202.737L201.858 35.4077L199.918 40.6771Z" fill="#120E1E"/>
</svg>
