<svg width="114" height="74" viewBox="0 0 114 74" fill="none" xmlns="http://www.w3.org/2000/svg">
<g clip-path="url(#clip0_927_43513)">
<path fill-rule="evenodd" clip-rule="evenodd" d="M19.057 48.2616C21.1669 47.9288 23.1056 47.4852 24.8163 47.0416L25.0444 47.1525V48.8715C26.584 47.707 28.1237 47.097 29.6062 47.097C30.9178 47.097 32.0012 47.5407 32.7425 48.3725C33.4838 49.2043 33.883 50.4242 33.883 51.9214V57.4667C33.883 58.7976 33.883 59.7403 33.883 60.4057C33.883 60.683 33.997 60.8494 34.2251 60.9603L35.8788 61.5148L35.9358 62.2911C34.6243 62.2357 33.3127 62.2357 32.0012 62.2357C30.6327 62.2357 29.3782 62.2357 28.2947 62.2911L28.2377 61.5702L29.6062 61.0712C29.8343 61.0157 29.9484 60.8494 29.9484 60.5721C29.9484 60.4057 29.9484 60.073 29.9484 59.5739V52.9196C29.9484 51.6442 29.7203 50.7015 29.3211 50.1469C28.8649 49.5924 28.2377 49.3152 27.3824 49.3152C26.6411 49.3152 25.8427 49.5924 25.0444 50.0915V56.9122C25.0444 58.2431 25.0444 59.463 25.0444 60.5166C25.0444 60.7939 25.1585 60.9603 25.3295 61.0157L26.7551 61.5148V62.2357C25.6146 62.1802 24.4172 62.1802 23.0486 62.1802C21.6801 62.1802 20.3685 62.1802 19.057 62.2357L19 61.5148L20.7677 60.9603C20.9958 60.9048 21.0528 60.7384 21.0528 60.4612C21.0528 59.7957 21.0528 59.1303 21.0528 58.5203V53.3078C21.0528 51.9214 21.0528 50.646 20.9958 49.4815L19.057 48.8715V48.2616ZM57.2053 65.0083L57.4334 65.8956C55.5516 68.28 54.012 69.5 52.8145 69.5C51.2749 69.5 49.9064 68.9455 48.7659 67.8919C47.5684 66.8383 46.6561 65.1747 46.0288 62.8457C42.9496 62.7902 40.6116 61.7366 38.901 59.6848C37.1903 57.6885 36.3349 54.9159 36.3349 51.4224C36.3349 47.7625 37.2473 44.8789 39.1291 42.7163C41.0108 40.6091 43.5768 39.5 46.8842 39.5C50.0774 39.5 52.5294 40.4982 54.2401 42.4945C55.9508 44.4908 56.8631 47.2079 56.8631 50.646C56.8631 54.0841 56.0648 56.8567 54.4682 58.964C52.8715 61.1266 50.7617 62.3466 48.0816 62.6793C48.937 64.7311 50.8758 65.7847 53.8409 65.7847C55.0384 65.7847 56.1789 65.5074 57.2053 65.0083ZM40.8397 50.9233C40.8397 54.3059 41.3529 56.9122 42.3223 58.6867C43.2917 60.4612 44.7743 61.4039 46.6561 61.4039C48.5378 61.4039 49.9064 60.5721 50.8187 58.964C51.7311 57.3558 52.1873 54.7495 52.1873 51.3115C52.1873 48.0397 51.7311 45.4889 50.7617 43.7699C49.7923 41.9954 48.3097 41.1081 46.371 41.1081C44.4322 41.1081 43.0636 41.9399 42.1513 43.5481C41.2959 45.1007 40.8397 47.5961 40.8397 50.9233ZM69.2941 61.0157C67.9256 62.1802 66.5 62.7348 64.9034 62.7348C63.4208 62.7348 62.3373 62.2911 61.539 61.4593C60.7977 60.6275 60.3986 59.4076 60.3986 57.9103V54.5277C60.3986 52.2542 60.3986 50.5906 60.3415 49.537L58.4028 48.927L58.3457 48.2616C60.5696 47.8734 62.5654 47.4298 64.2761 47.0416L64.4472 47.1525C64.3902 48.4834 64.3902 50.0915 64.3902 52.0878V56.9677C64.3902 58.2431 64.6182 59.1303 65.0174 59.6848C65.4166 60.2394 66.0438 60.5166 66.8421 60.5166C67.6975 60.5166 68.4958 60.2948 69.2371 59.8512V53.1414C69.2371 51.6442 69.2371 50.4242 69.1801 49.4815L67.3553 48.927L67.2983 48.2616C69.4652 47.8734 71.404 47.4298 73.0576 47.0416L73.2287 47.1525C73.1717 48.4834 73.1146 50.1469 73.1146 52.1433C73.1146 55.9695 73.1146 58.2985 73.1146 59.1858C73.1146 59.6294 73.1717 59.9621 73.1717 60.1839C73.2287 60.4612 73.2857 60.6275 73.4568 60.7939C73.5708 60.9048 73.7989 61.0157 74.027 61.0712C74.2551 61.1266 74.6543 61.1821 75.1104 61.1821L75.1675 61.903C73.8559 62.4575 72.7155 62.6793 71.8031 62.6793C70.4916 62.7347 69.6933 62.1248 69.2941 61.0157ZM89.7083 61.2375C87.9976 62.2357 86.2299 62.7348 84.3481 62.7348C82.1242 62.7348 80.2995 62.0693 78.874 60.8494C77.4484 59.5739 76.7641 57.6885 76.7641 55.1932C76.7641 52.8087 77.4484 50.9233 78.8169 49.4261C80.1855 47.9288 81.8962 47.2079 84.006 47.2079C85.8307 47.2079 87.2563 47.7625 88.2827 48.927C89.3091 50.0915 89.7653 51.6442 89.7653 53.6405C89.7653 53.9177 89.7653 54.2505 89.7083 54.5832H80.9838C80.9838 56.7458 81.44 58.2431 82.3523 59.1858C83.2647 60.1285 84.7473 60.5721 86.8001 60.5721C87.7695 60.5721 88.7389 60.4612 89.6513 60.2948L89.7083 61.2375ZM85.6026 53.0305V52.6423C85.6026 51.2006 85.4316 50.1469 85.1465 49.537C84.8613 48.927 84.3481 48.5943 83.7209 48.5943C82.9226 48.5943 82.3523 49.0379 81.8391 49.8697C81.383 50.7569 81.0978 51.7551 81.0408 52.975H85.6026V53.0305ZM99.7443 48.927C99.1741 48.7606 98.5468 48.7052 97.8625 48.7052C97.0072 48.7052 96.3229 48.8715 95.8097 49.2043C95.2965 49.537 95.0114 50.036 95.0114 50.646C95.0114 51.1451 95.1254 51.4778 95.3535 51.7551C95.5816 52.0323 95.9808 52.2542 96.551 52.476L98.7179 53.3632C100.029 53.8623 100.999 54.5277 101.569 55.2486C102.196 55.9695 102.481 56.8567 102.481 57.7994C102.481 59.3521 101.911 60.5721 100.771 61.4039C99.6302 62.2911 98.1477 62.6793 96.3229 62.6793C94.7833 62.6793 93.3007 62.2911 91.8181 61.5702C92.1032 60.1285 92.3884 58.7976 92.5594 57.4667L93.2437 57.3558L94.2131 60.7939C94.7833 61.0157 95.4676 61.1266 96.3229 61.1266C97.1212 61.1266 97.7485 60.9603 98.2617 60.6275C98.7749 60.2948 99.003 59.7957 99.003 59.1858C99.003 58.6867 98.8319 58.2431 98.5468 57.8549C98.2617 57.5222 97.6345 57.134 96.7791 56.8013L95.1255 56.1359C94.042 55.6922 93.2437 55.1377 92.7305 54.4723C92.2173 53.8068 91.9322 52.9196 91.9322 51.9214C91.9322 50.3688 92.4454 49.2043 93.5288 48.3725C94.5552 47.5407 96.0378 47.1525 97.8625 47.1525C99.4022 47.1525 100.771 47.4298 101.968 47.9288C101.683 49.3152 101.455 50.646 101.284 51.866L100.543 51.9769L99.7443 48.927ZM109.837 49.4261C109.78 52.7532 109.78 55.5259 109.78 57.8549C109.78 58.9085 109.894 59.6848 110.179 60.073C110.465 60.4612 111.035 60.683 111.833 60.683C112.46 60.683 113.145 60.6275 113.886 60.5721L114 61.5148C112.574 62.3466 111.206 62.7348 109.951 62.7348C108.697 62.7348 107.67 62.402 106.986 61.7921C106.302 61.1821 105.96 60.2394 105.96 59.0194C105.96 56.8013 105.96 53.585 106.017 49.3706L104.192 48.8161L104.078 47.9843L106.359 47.7625L107.67 44.0471C108.469 43.8808 109.153 43.7144 109.78 43.6035L109.951 43.7144C109.951 44.9898 109.894 46.3762 109.894 47.7625H113.715V49.4815H109.837V49.4261Z" fill="#120E1E"/>
<path fill-rule="evenodd" clip-rule="evenodd" d="M47.3001 54.8117C49.4598 52.7154 45.8779 47.5595 46.4573 44.5C44.7191 46.1997 43.4022 48.9193 43.0862 51.2989C42.4014 56.0015 45.9833 56.0582 47.3001 54.8117Z" fill="#120E1E"/>
<path fill-rule="evenodd" clip-rule="evenodd" d="M12.3222 5.65088C14.9211 8.42293 9.19168 13.8583 9.42795 17.5C7.36063 15.2171 6.06116 11.8472 6.0021 9.07517C5.88397 3.42238 10.7865 3.96592 12.3222 5.65088Z" fill="#120E1E"/>
<path fill-rule="evenodd" clip-rule="evenodd" d="M9.60047 40.5C9.60047 40.9472 9.87559 41.8416 10.0407 42.2329C11.8564 45.5311 14.0024 48.5497 14.5526 51.6801C15.1579 54.8106 14.9378 56.4876 14.7177 58.5H8.5H6.35408H2.22731C2.00722 56.4876 1.78712 54.8106 2.39238 51.6801C2.99764 48.5497 5.14356 45.5311 6.90432 42.2329C7.12441 41.8416 7.34451 40.9472 7.34451 40.5C7.34451 40.0528 7.06939 39.1584 6.90432 38.7671C5.08854 35.4689 2.94262 32.4503 2.39238 29.3199C1.78712 26.1894 2.00722 24.5124 2.22731 22.5H8.5H14.7727C14.9928 24.5124 15.2129 26.1894 14.6076 29.3199C14.0024 32.4503 11.8564 35.4689 10.0957 38.7671C9.87559 39.1584 9.60047 40.0528 9.60047 40.5Z" fill="#120E1E"/>
<path fill-rule="evenodd" clip-rule="evenodd" d="M4 52.5C4.85714 49.2443 7.6 47.3919 8.57143 43.238C8.85714 40.4875 8.4 40.3191 7.08571 37.7931C6.28571 36.1653 2.8 29.0364 4.74286 25.5C7.6 25.5 10.4 25.5 13.2571 25.5C15.1429 28.9802 11.7143 36.1653 10.9143 37.7931C9.65714 40.3191 9.2 40.4875 9.42857 43.238C10.4 47.3919 13.1429 49.2443 14 52.5C12.5714 51.9387 11.2571 50.4792 9.02857 50.0301C6.74286 50.4792 5.42857 51.9948 4 52.5Z" fill="#120E1E"/>
<path fill-rule="evenodd" clip-rule="evenodd" d="M13.514 63.4474C11.9439 63.4474 1.51402 63.4474 0.0560748 63.5L0 62.7632L2.13084 62.0789C2.35514 61.9737 2.46729 61.8158 2.46729 61.6053V61.5H15.4766V61.6053C15.4766 61.8684 15.5888 62.0263 15.8131 62.0789L17.9439 62.7632L18 63.5C16.5421 63.4474 15.028 63.4474 13.514 63.4474Z" fill="#120E1E"/>
<path fill-rule="evenodd" clip-rule="evenodd" d="M13.514 20.5526C11.9439 20.5526 1.51402 20.5526 0.0560748 20.5L0 21.2368L2.13084 21.9211C2.35514 22.0263 2.46729 22.1842 2.46729 22.3947V22.5H15.4766V22.3947C15.4766 22.1316 15.5888 21.9737 15.8131 21.9211L17.9439 21.2368L18 20.5C16.5421 20.5 15.028 20.5526 13.514 20.5526Z" fill="#120E1E"/>
</g>
<defs>
<clipPath id="clip0_927_43513">
<rect width="114" height="74" fill="white"/>
</clipPath>
</defs>
</svg>
